<?xml version="1.0" standalone="no"?>
<!DOCTYPE svg PUBLIC "-//W3C//DTD SVG 20010904//EN"
 "http://www.w3.org/TR/2001/REC-SVG-20010904/DTD/svg10.dtd">
<svg version="1.0" xmlns="http://www.w3.org/2000/svg"
 width="1920.000000pt" height="1280.000000pt" viewBox="0 0 1920.000000 1280.000000"
 preserveAspectRatio="xMidYMid meet">

<g transform="translate(0.000000,1280.000000) scale(0.100000,-0.100000)"
fill="#000000" stroke="none">
<path d="M13592 9604 c-16 -11 -22 -25 -22 -50 0 -21 4 -33 10 -29 6 4 10 -22
9 -72 0 -51 -3 -71 -9 -58 -10 25 -18 -243 -9 -330 4 -41 7 -6 10 110 3 147 4
125 10 -165 4 -184 8 -347 10 -363 1 -15 -6 -35 -15 -45 -10 -12 -16 -37 -16
-68 -1 -27 -9 -67 -20 -89 l-19 -40 26 -3 c13 -2 33 4 43 13 16 15 18 54 22
558 3 298 1 550 -3 559 -6 10 -5 19 1 23 12 7 14 65 2 65 -4 0 -18 -7 -30 -16z
m15 -491 c-3 -10 -5 -2 -5 17 0 19 2 27 5 18 2 -10 2 -26 0 -35z m0 -350 c-3
-10 -5 -4 -5 12 0 17 2 24 5 18 2 -7 2 -21 0 -30z m-5 -278 c5 30 5 29 7 -6 0
-19 -5 -43 -12 -53 -12 -16 -13 -9 -14 50 0 61 1 63 7 24 6 -42 6 -43 12 -15z"/>
<path d="M13560 8926 c0 -9 5 -16 10 -16 6 0 10 4 10 9 0 6 -4 13 -10 16 -5 3
-10 -1 -10 -9z"/>
<path d="M13564 8860 c-1 -17 3 -30 7 -30 5 0 9 14 9 30 0 39 -15 39 -16 0z"/>
<path d="M13560 8784 c0 -21 5 -46 10 -54 8 -11 10 -2 7 32 -4 59 -17 76 -17
22z"/>
<path d="M13620 5720 c-9 -6 -10 -10 -3 -10 8 0 13 -24 16 -67 l3 -68 2 72 c2
66 4 72 25 76 21 4 20 4 -3 5 -14 1 -32 -3 -40 -8z"/>
<path d="M13798 5674 c-5 -4 -7 -39 -7 -78 l1 -71 9 60 c10 65 8 101 -3 89z"/>
<path d="M18148 5423 c17 -2 47 -2 65 0 17 2 3 4 -33 4 -36 0 -50 -2 -32 -4z"/>
<path d="M14701 4494 c0 -11 3 -14 6 -6 3 7 2 16 -1 19 -3 4 -6 -2 -5 -13z"/>
<path d="M14570 4489 c0 -5 5 -7 10 -4 6 3 10 8 10 11 0 2 -4 4 -10 4 -5 0
-10 -5 -10 -11z"/>
<path d="M14550 4468 c0 -5 26 -7 58 -7 61 1 55 6 -15 11 -24 2 -43 0 -43 -4z"/>
<path d="M15298 4423 c12 -2 32 -2 45 0 12 2 2 4 -23 4 -25 0 -35 -2 -22 -4z"/>
<path d="M15573 4423 c9 -2 25 -2 35 0 9 3 1 5 -18 5 -19 0 -27 -2 -17 -5z"/>
<path d="M15643 4423 c9 -2 23 -2 30 0 6 3 -1 5 -18 5 -16 0 -22 -2 -12 -5z"/>
<path d="M15768 4423 c7 -3 16 -2 19 1 4 3 -2 6 -13 5 -11 0 -14 -3 -6 -6z"/>
<path d="M15848 4423 c7 -3 16 -2 19 1 4 3 -2 6 -13 5 -11 0 -14 -3 -6 -6z"/>
<path d="M16053 4407 c12 -13 24 -22 26 -20 6 4 -30 43 -40 43 -5 0 2 -10 14
-23z"/>
<path d="M13565 4410 c-3 -6 1 -7 9 -4 18 7 21 14 7 14 -6 0 -13 -4 -16 -10z"/>
<path d="M14216 4407 c-11 -8 -17 -19 -15 -24 2 -6 12 0 22 13 20 27 19 30 -7
11z"/>
<path d="M14869 4403 c-13 -16 -12 -17 4 -4 16 13 21 21 13 21 -2 0 -10 -8
-17 -17z"/>
<path d="M15408 4390 c12 -21 18 -25 20 -14 4 16 -15 44 -29 44 -4 0 0 -13 9
-30z"/>
<path d="M15530 4410 c-8 -5 -12 -12 -9 -15 4 -3 12 1 19 10 14 17 11 19 -10
5z"/>
<path d="M12771 4386 c7 -15 15 -23 17 -16 3 7 -3 19 -13 28 -15 16 -16 15 -4
-12z"/>
<path d="M12891 4401 c-7 -5 -12 -14 -10 -20 2 -6 10 -2 17 9 14 22 13 23 -7
11z"/>
<path d="M14090 4403 c0 -4 5 -15 10 -23 8 -13 10 -13 10 2 0 9 -4 20 -10 23
-5 3 -10 3 -10 -2z"/>
<path d="M10227 4393 c-4 -3 -7 -11 -7 -17 0 -6 5 -5 12 2 6 6 9 14 7 17 -3 3
-9 2 -12 -2z"/>
<path d="M11440 4391 c0 -5 5 -13 10 -16 6 -3 10 -2 10 4 0 5 -4 13 -10 16 -5
3 -10 2 -10 -4z"/>
<path d="M11557 4393 c-4 -3 -7 -11 -7 -17 0 -6 5 -5 12 2 6 6 9 14 7 17 -3 3
-9 2 -12 -2z"/>
<path d="M7547 4383 c-4 -3 -7 -11 -7 -17 0 -6 5 -5 12 2 6 6 9 14 7 17 -3 3
-9 2 -12 -2z"/>
<path d="M8887 4383 c-4 -3 -7 -11 -7 -17 0 -6 5 -5 12 2 6 6 9 14 7 17 -3 3
-9 2 -12 -2z"/>
<path d="M13813 4305 c0 -22 2 -30 4 -17 2 12 2 30 0 40 -3 9 -5 -1 -4 -23z"/>
<path d="M15032 4320 c0 -14 2 -19 5 -12 2 6 2 18 0 25 -3 6 -5 1 -5 -13z"/>
<path d="M12333 4295 c0 -22 2 -30 4 -17 2 12 2 30 0 40 -3 9 -5 -1 -4 -23z"/>
<path d="M12382 4312 l-24 -18 26 -17 26 -17 0 35 c0 19 -1 35 -2 35 -2 0 -14
-9 -26 -18z"/>
<path d="M12452 4312 l-24 -18 26 -17 26 -17 0 35 c0 19 -1 35 -2 35 -2 0 -14
-9 -26 -18z"/>
<path d="M13000 4301 c0 -34 6 -37 33 -17 13 10 14 15 5 23 -33 25 -38 24 -38
-6z"/>
<path d="M13073 4295 c0 -22 2 -30 4 -17 2 12 2 30 0 40 -3 9 -5 -1 -4 -23z"/>
<path d="M13670 4300 c0 -30 0 -30 25 -14 24 15 24 17 8 30 -27 20 -33 17 -33
-16z"/>
<path d="M13740 4300 c0 -30 0 -30 25 -14 24 15 24 17 8 30 -27 20 -33 17 -33
-16z"/>
<path d="M14353 4323 c-7 -2 -12 -17 -12 -31 1 -21 2 -22 6 -7 3 11 12 26 21
33 16 12 8 15 -15 5z"/>
<path d="M14995 4320 c-11 -5 -14 -9 -7 -9 6 -1 12 -7 12 -15 0 -8 -6 -17 -12
-19 -8 -4 -7 -6 3 -6 11 -1 18 9 21 29 3 17 4 30 4 29 -1 0 -10 -4 -21 -9z"/>
<path d="M15424 4245 c0 -49 1 -71 3 -48 2 23 2 64 0 90 -2 26 -3 8 -3 -42z"/>
<path d="M16082 4305 c0 -16 2 -22 5 -12 2 9 2 23 0 30 -3 6 -5 -1 -5 -18z"/>
<path d="M11040 4311 c0 -7 7 -19 15 -27 19 -20 19 -5 0 20 -9 11 -15 14 -15
7z"/>
<path d="M15064 4306 c-8 -8 -7 -15 0 -22 8 -8 15 -7 22 0 8 8 7 15 0 22 -8 8
-15 7 -22 0z"/>
<path d="M8370 4300 c0 -5 5 -10 10 -10 6 0 10 5 10 10 0 6 -4 10 -10 10 -5 0
-10 -4 -10 -10z"/>
<path d="M15700 4302 c0 -5 14 -7 30 -4 17 2 30 6 30 8 0 2 -13 4 -30 4 -16 0
-30 -4 -30 -8z"/>
<path d="M11691 4273 c-10 -23 -10 -25 2 -14 12 9 16 9 20 -1 2 -7 6 -11 9 -8
3 3 -1 15 -7 27 l-12 23 -12 -27z"/>
<path d="M14408 4293 c6 -2 18 -2 25 0 6 3 1 5 -13 5 -14 0 -19 -2 -12 -5z"/>
<path d="M15850 4260 c0 -22 3 -40 8 -40 4 0 6 18 4 40 -2 22 -6 40 -8 40 -2
0 -4 -18 -4 -40z"/>
<path d="M15027 4275 c-4 -8 -2 -17 3 -20 6 -4 10 3 10 14 0 25 -6 27 -13 6z"/>
<path d="M15880 4274 c0 -8 5 -12 10 -9 6 3 10 10 10 16 0 5 -4 9 -10 9 -5 0
-10 -7 -10 -16z"/>
<path d="M11020 4270 c-13 -8 -12 -10 3 -10 9 0 17 5 17 10 0 12 -1 12 -20 0z"/>
<path d="M15700 4269 c0 -5 11 -9 25 -9 14 0 25 2 25 4 0 2 -11 6 -25 8 -14 3
-25 1 -25 -3z"/>
<path d="M15818 4250 c2 -16 6 -30 8 -30 2 0 4 14 4 30 0 17 -4 30 -8 30 -5 0
-7 -13 -4 -30z"/>
<path d="M10380 4250 c-9 -6 -10 -10 -3 -10 6 0 15 5 18 10 8 12 4 12 -15 0z"/>
<path d="M8325 4230 c3 -5 8 -10 11 -10 2 0 4 5 4 10 0 6 -5 10 -11 10 -5 0
-7 -4 -4 -10z"/>
<path d="M9018 4233 c6 -2 18 -2 25 0 6 3 1 5 -13 5 -14 0 -19 -2 -12 -5z"/>
<path d="M13533 4200 c0 -25 2 -35 4 -22 2 12 2 32 0 45 -2 12 -4 2 -4 -23z"/>
<path d="M12780 4183 c-3 -29 -1 -48 3 -44 5 5 7 28 5 52 l-3 44 -5 -52z"/>
<path d="M14193 4195 c0 -22 2 -30 4 -17 2 12 2 30 0 40 -3 9 -5 -1 -4 -23z"/>
<path d="M15713 4223 c9 -2 25 -2 35 0 9 3 1 5 -18 5 -19 0 -27 -2 -17 -5z"/>
<path d="M16073 4185 c0 -22 2 -30 4 -17 2 12 2 30 0 40 -3 9 -5 -1 -4 -23z"/>
<path d="M14761 4164 c0 -11 3 -14 6 -6 3 7 2 16 -1 19 -3 4 -6 -2 -5 -13z"/>
<path d="M14360 4110 c-112 -5 -101 -6 99 -8 123 -1 222 0 220 2 -9 8 -202 12
-319 6z"/>
<path d="M14890 4110 c18 -11 372 -11 415 0 17 4 -71 8 -200 8 -144 1 -224 -3
-215 -8z"/>
<path d="M15693 4113 c64 -2 170 -2 235 0 64 1 11 3 -118 3 -129 0 -182 -2
-117 -3z"/>
<path d="M12257 4098 c6 -10 362 -8 433 2 35 5 -34 8 -192 7 -135 -1 -244 -5
-241 -9z"/>
<path d="M13053 4103 c64 -2 170 -2 235 0 64 1 11 3 -118 3 -129 0 -182 -2
-117 -3z"/>
<path d="M13688 4103 c67 -2 177 -2 245 0 67 1 12 3 -123 3 -135 0 -190 -2
-122 -3z"/>
<path d="M9590 4090 c20 -13 63 -13 55 0 -3 6 -21 10 -38 10 -24 0 -28 -3 -17
-10z"/>
<path d="M10473 4093 c42 -2 112 -2 155 0 42 1 7 3 -78 3 -85 0 -120 -2 -77
-3z"/>
<path d="M11033 4093 c71 -2 183 -2 250 0 67 1 10 3 -128 3 -137 0 -192 -2
-122 -3z"/>
<path d="M11728 4093 c61 -2 163 -2 225 0 61 1 11 3 -113 3 -124 0 -174 -2
-112 -3z"/>
<path d="M6918 4083 c12 -2 32 -2 45 0 12 2 2 4 -23 4 -25 0 -35 -2 -22 -4z"/>
<path d="M7083 4083 c48 -2 126 -2 175 0 48 1 8 3 -88 3 -96 0 -136 -2 -87 -3z"/>
<path d="M7738 4083 c57 -2 147 -2 200 0 53 1 7 3 -103 3 -110 0 -154 -2 -97
-3z"/>
<path d="M8358 4083 c67 -2 177 -2 245 0 67 1 12 3 -123 3 -135 0 -190 -2
-122 -3z"/>
<path d="M9083 4083 c53 -2 141 -2 195 0 53 1 9 3 -98 3 -107 0 -151 -2 -97
-3z"/>
<path d="M9718 4083 c23 -2 61 -2 85 0 23 2 4 4 -43 4 -47 0 -66 -2 -42 -4z"/>
<path d="M9873 4083 c9 -2 25 -2 35 0 9 3 1 5 -18 5 -19 0 -27 -2 -17 -5z"/>
<path d="M14865 4020 c-15 -6 -8 -9 27 -9 26 -1 50 4 53 9 8 12 -52 12 -80 0z"/>
<path d="M15649 4023 c339 -3 387 -5 403 -19 16 -15 18 -40 21 -228 l2 -211 3
213 c2 200 1 213 -18 232 -19 19 -32 20 -407 18 l-388 -3 384 -2z"/>
<path d="M12968 4013 c7 -3 16 -2 19 1 4 3 -2 6 -13 5 -11 0 -14 -3 -6 -6z"/>
<path d="M13363 4013 c9 -2 23 -2 30 0 6 3 -1 5 -18 5 -16 0 -22 -2 -12 -5z"/>
<path d="M13523 4013 c53 -2 141 -2 195 0 53 1 9 3 -98 3 -107 0 -151 -2 -97
-3z"/>
<path d="M13968 4009 c-10 -5 -18 -15 -18 -20 0 -6 7 -3 16 5 13 14 50 16 245
16 140 0 238 -4 250 -10 10 -6 20 -21 20 -33 1 -18 2 -19 6 -4 3 10 -3 27 -13
38 -16 18 -33 19 -253 19 -142 0 -243 -5 -253 -11z"/>
<path d="M14597 4008 c-9 -7 -19 -26 -22 -43 -7 -30 -7 -30 12 5 10 20 29 37
43 41 21 6 22 7 4 8 -11 1 -28 -5 -37 -11z"/>
<path d="M14733 4013 c9 -2 25 -2 35 0 9 3 1 5 -18 5 -19 0 -27 -2 -17 -5z"/>
<path d="M15087 4009 c33 -17 36 -52 26 -288 -4 -115 -5 -207 -2 -203 4 4 10
106 13 227 7 235 2 267 -39 272 -18 3 -17 2 2 -8z"/>
<path d="M15229 4003 c-13 -17 -13 -17 6 -3 11 8 22 16 24 17 2 2 0 3 -6 3 -6
0 -17 -8 -24 -17z"/>
<path d="M10923 4003 c59 -2 155 -2 215 0 59 1 10 3 -108 3 -118 0 -167 -2
-107 -3z"/>
<path d="M11400 3990 c-11 -11 -20 -26 -20 -32 0 -7 6 -4 12 7 6 11 13 22 15
25 3 3 116 7 251 10 l247 6 -242 2 c-231 2 -244 1 -263 -18z"/>
<path d="M12263 4003 c37 -2 96 -2 130 0 34 2 4 3 -68 3 -71 0 -99 -1 -62 -3z"/>
<path d="M12680 3995 c-19 -22 -8 -25 13 -3 9 10 13 18 8 18 -5 0 -14 -7 -21
-15z"/>
<path d="M13319 3993 c-13 -16 -12 -17 4 -4 16 13 21 21 13 21 -2 0 -10 -8
-17 -17z"/>
<path d="M13831 3993 c7 -12 15 -20 18 -17 3 2 -3 12 -13 22 -17 16 -18 16 -5
-5z"/>
<path d="M7053 3993 c59 -2 154 -2 210 0 56 1 8 3 -108 3 -115 0 -161 -2 -102
-3z"/>
<path d="M7723 3993 c37 -2 96 -2 130 0 34 2 4 3 -68 3 -71 0 -99 -1 -62 -3z"/>
<path d="M7928 3993 c7 -3 16 -2 19 1 4 3 -2 6 -13 5 -11 0 -14 -3 -6 -6z"/>
<path d="M8283 3993 c9 -2 23 -2 30 0 6 3 -1 5 -18 5 -16 0 -22 -2 -12 -5z"/>
<path d="M8428 3993 c6 -2 18 -2 25 0 6 3 1 5 -13 5 -14 0 -19 -2 -12 -5z"/>
<path d="M10115 3990 c-3 -6 1 -7 9 -4 18 7 21 14 7 14 -6 0 -13 -4 -16 -10z"/>
<path d="M10755 3990 c-3 -6 1 -7 9 -4 18 7 21 14 7 14 -6 0 -13 -4 -16 -10z"/>
<path d="M12570 3827 l5 -152 3 144 c1 80 -1 148 -5 152 -4 5 -6 -60 -3 -144z"/>
<path d="M13847 3839 c-4 -67 -7 -166 -7 -219 0 -144 18 -134 -267 -140 l-238
-6 233 -2 c305 -3 276 -28 286 262 7 238 3 300 -7 105z"/>
<path d="M8064 3745 c0 -115 2 -161 3 -102 2 59 2 154 0 210 -1 56 -3 8 -3
-108z"/>
<path d="M13214 3830 c0 -69 1 -97 3 -62 2 34 2 90 0 125 -2 34 -3 6 -3 -63z"/>
<path d="M5640 3903 c-14 -2 -39 -6 -56 -8 -19 -3 -34 -13 -36 -23 -5 -17 4
-18 113 -15 l117 3 33 -70 c28 -62 49 -88 49 -61 0 19 -71 157 -87 169 -16 11
-77 14 -133 5z m50 -18 c-14 -17 -60 -20 -60 -4 0 6 9 8 20 4 11 -4 20 -2 20
4 0 6 7 11 16 11 14 0 14 -3 4 -15z"/>
<path d="M14482 3728 c-1 -102 -5 -195 -8 -205 -5 -16 -5 -16 5 -1 8 11 10 81
8 205 l-2 188 -3 -187z"/>
<path d="M11933 3840 c0 -36 2 -50 4 -32 2 17 2 47 0 65 -2 17 -4 3 -4 -33z"/>
<path d="M14127 3879 c4 -13 8 -18 11 -10 2 7 -1 18 -6 23 -8 8 -9 4 -5 -13z"/>
<path d="M10905 3880 c-4 -6 1 -22 10 -37 14 -21 15 -27 4 -34 -16 -10 -8 -12
15 -3 9 3 16 13 16 21 0 8 -4 11 -10 8 -5 -3 -10 1 -10 9 0 9 -5 16 -11 16 -6
0 -9 7 -5 15 6 17 0 20 -9 5z"/>
<path d="M13478 3883 c12 -2 32 -2 45 0 12 2 2 4 -23 4 -25 0 -35 -2 -22 -4z"/>
<path d="M7414 3690 c0 -107 2 -151 3 -97 2 53 2 141 0 195 -1 53 -3 9 -3 -98z"/>
<path d="M7673 3840 c0 -25 2 -35 4 -22 2 12 2 32 0 45 -2 12 -4 2 -4 -23z"/>
<path d="M8386 3865 c-9 -26 -7 -32 5 -12 6 10 9 21 6 23 -2 3 -7 -2 -11 -11z"/>
<path d="M14737 3869 c7 -7 15 -10 18 -7 3 3 -2 9 -12 12 -14 6 -15 5 -6 -5z"/>
<path d="M8336 3853 c-6 -14 -5 -15 5 -6 7 7 10 15 7 18 -3 3 -9 -2 -12 -12z"/>
<path d="M12872 3850 c0 -14 2 -19 5 -12 2 6 2 18 0 25 -3 6 -5 1 -5 -13z"/>
<path d="M7039 3833 c-13 -16 -12 -17 4 -4 9 7 17 15 17 17 0 8 -8 3 -21 -13z"/>
<path d="M9597 3839 c7 -7 15 -10 18 -7 3 3 -2 9 -12 12 -14 6 -15 5 -6 -5z"/>
<path d="M13478 3843 c12 -2 32 -2 45 0 12 2 2 4 -23 4 -25 0 -35 -2 -22 -4z"/>
<path d="M10644 3695 c0 -82 2 -115 3 -72 2 43 2 110 0 150 -1 40 -3 5 -3 -78z"/>
<path d="M10891 3824 c0 -11 3 -14 6 -6 3 7 2 16 -1 19 -3 4 -6 -2 -5 -13z"/>
<path d="M14572 3810 c0 -19 2 -27 5 -17 2 9 2 25 0 35 -3 9 -5 1 -5 -18z"/>
<path d="M9631 3814 c0 -11 3 -14 6 -6 3 7 2 16 -1 19 -3 4 -6 -2 -5 -13z"/>
<path d="M10733 3760 c0 -41 2 -58 4 -37 2 20 2 54 0 75 -2 20 -4 3 -4 -38z"/>
<path d="M15330 3764 c0 -45 0 -45 33 -42 29 3 32 6 32 35 1 26 -2 30 -13 20
-9 -7 -10 -13 -3 -15 22 -7 11 -32 -14 -32 -16 0 -25 6 -25 15 0 8 6 15 13 15
8 0 8 3 -2 9 -8 5 -11 16 -8 25 4 9 2 16 -3 16 -6 0 -10 -21 -10 -46z"/>
<path d="M15563 3765 c-1 -27 1 -42 4 -32 2 9 7 17 10 17 3 0 12 -8 20 -17 13
-16 13 -16 3 5 -6 12 -8 27 -5 32 3 5 -1 7 -9 4 -9 -4 -16 2 -19 18 -2 13 -4
1 -4 -27z"/>
<path d="M8711 3774 c0 -11 3 -14 6 -6 3 7 2 16 -1 19 -3 4 -6 -2 -5 -13z"/>
<path d="M9442 3760 c0 -19 2 -27 5 -17 2 9 2 25 0 35 -3 9 -5 1 -5 -18z"/>
<path d="M11284 3655 c0 -77 2 -107 3 -67 2 40 2 103 0 140 -2 37 -3 4 -3 -73z"/>
<path d="M15450 3783 c16 -8 12 -20 -10 -26 -20 -5 -29 -37 -10 -37 5 0 7 7 4
15 -4 9 0 15 9 15 9 0 18 -8 21 -17 2 -10 4 -3 3 16 -1 19 -8 36 -15 37 -7 1
-8 0 -2 -3z"/>
<path d="M15500 3775 c-17 -20 -8 -49 15 -52 17 -2 17 -1 2 3 -24 7 -19 50 5
48 10 -1 15 2 12 7 -8 13 -20 11 -34 -6z"/>
<path d="M15630 3776 c0 -7 11 -21 25 -30 15 -10 25 -12 25 -5 0 6 -9 13 -20
16 -25 7 -26 20 -2 26 13 4 11 5 -5 6 -14 1 -23 -5 -23 -13z"/>
<path d="M15697 3783 c-4 -3 -7 -25 -6 -47 0 -23 3 -35 6 -28 2 6 12 12 21 12
15 1 15 2 -1 11 -13 8 -17 18 -13 35 7 25 4 29 -7 17z"/>
<path d="M15726 3783 c7 -4 14 -17 17 -28 5 -16 5 -15 4 4 -1 14 -9 26 -17 28
-10 3 -11 2 -4 -4z"/>
<path d="M15776 3781 c-3 -5 3 -7 14 -4 11 3 20 1 20 -5 0 -6 -8 -13 -17 -15
-16 -4 -16 -5 -1 -6 9 0 19 -9 22 -18 2 -10 4 -2 3 17 -2 34 -27 54 -41 31z"/>
<path d="M15845 3779 c-4 -6 -4 -13 -1 -16 3 -4 6 -1 6 6 0 8 8 11 20 8 11 -3
18 -1 14 4 -7 12 -31 11 -39 -2z"/>
<path d="M15910 3775 c-15 -18 -4 -46 21 -53 8 -2 5 3 -6 12 l-20 15 20 1 20
1 -20 9 c-19 7 -19 8 -1 15 11 5 22 3 28 -6 8 -12 9 -11 5 1 -5 21 -31 24 -47
5z"/>
<path d="M8794 3630 c0 -74 1 -105 3 -67 2 37 2 97 0 135 -2 37 -3 6 -3 -68z"/>
<path d="M11373 3690 c0 -41 2 -58 4 -37 2 20 2 54 0 75 -2 20 -4 3 -4 -38z"/>
<path d="M14573 3715 c0 -27 2 -38 4 -22 2 15 2 37 0 50 -2 12 -4 0 -4 -28z"/>
<path d="M15763 3740 c2 -8 12 -16 23 -17 13 -2 15 -1 4 4 -8 3 -19 11 -23 17
-6 7 -7 6 -4 -4z"/>
<path d="M15847 3729 c7 -7 15 -10 18 -7 3 3 -2 9 -12 12 -14 6 -15 5 -6 -5z"/>
<path d="M15638 3723 c7 -3 16 -2 19 1 4 3 -2 6 -13 5 -11 0 -14 -3 -6 -6z"/>
<path d="M11924 3615 c0 -60 1 -84 3 -52 2 32 2 81 0 110 -2 29 -3 3 -3 -58z"/>
<path d="M8702 3604 c-2 -93 -5 -114 -20 -127 -15 -14 -52 -17 -248 -20 l-229
-2 231 -3 c230 -2 231 -2 253 22 20 21 21 31 18 132 l-3 109 -2 -111z"/>
<path d="M13202 3613 c-1 -50 -5 -100 -8 -110 -5 -17 -5 -17 6 -1 6 11 9 54 7
110 l-3 93 -2 -92z"/>
<path d="M12404 3676 c-3 -7 -4 -33 -2 -57 3 -43 4 -42 8 14 5 58 4 68 -6 43z"/>
<path d="M12832 3678 c-17 -17 -15 -45 4 -52 24 -9 31 -7 12 5 -10 5 -18 16
-18 24 0 8 8 19 18 24 9 6 12 11 7 11 -6 0 -16 -5 -23 -12z"/>
<path d="M13472 3678 c-32 -32 -1 -116 33 -88 26 22 14 100 -15 100 -3 0 -11
-5 -18 -12z m33 -44 c0 -28 -4 -39 -15 -39 -16 0 -26 45 -16 72 11 28 31 7 31
-33z"/>
<path d="M14082 3670 c0 -14 2 -19 5 -12 2 6 2 18 0 25 -3 6 -5 1 -5 -13z"/>
<path d="M10902 3668 c-13 -13 -17 -74 -4 -81 4 -3 7 14 7 36 0 39 2 42 25 39
19 -2 22 0 10 8 -19 13 -24 12 -38 -2z"/>
<path d="M11569 3671 c8 -5 10 -14 6 -21 -5 -9 -4 -11 3 -6 18 11 14 36 -5 36
-14 0 -15 -2 -4 -9z"/>
<path d="M12185 3669 c-4 -6 -5 -12 -2 -15 2 -3 7 2 10 11 7 17 1 20 -8 4z"/>
<path d="M13932 3660 c0 -14 2 -19 5 -12 2 6 2 18 0 25 -3 6 -5 1 -5 -13z"/>
<path d="M8956 3661 c-4 -5 2 -7 13 -4 21 5 37 -12 21 -22 -8 -5 -7 -11 1 -21
6 -7 9 -21 5 -29 -3 -9 -2 -13 4 -10 10 6 7 65 -4 84 -9 13 -33 15 -40 2z"/>
<path d="M9618 3663 c-2 -5 -1 -28 3 -53 l6 -45 1 53 c2 48 -2 63 -10 45z"/>
<path d="M10250 3645 c0 -18 4 -23 16 -18 11 4 23 -1 32 -13 9 -12 13 -13 10
-4 -2 8 -14 19 -26 25 -12 5 -20 16 -17 22 2 7 0 13 -5 13 -6 0 -10 -11 -10
-25z"/>
<path d="M7678 3653 c-2 -5 -1 -28 3 -53 l6 -45 1 53 c2 48 -2 63 -10 45z"/>
<path d="M8375 3648 c5 -12 -2 -26 -20 -42 -15 -14 -25 -31 -22 -38 4 -8 6 -7
6 5 1 9 5 17 11 17 5 0 17 11 26 26 13 19 14 28 5 37 -10 9 -11 8 -6 -5z"/>
<path d="M12212 3646 c-33 -19 -36 -24 -8 -19 14 3 27 11 30 19 3 8 4 14 3 13
-1 -1 -12 -7 -25 -13z"/>
<path d="M7000 3600 c-11 -22 -18 -40 -15 -40 2 0 11 14 20 30 20 38 29 38 45
0 7 -17 15 -29 17 -27 6 7 -29 77 -39 77 -4 0 -17 -18 -28 -40z"/>
<path d="M9993 3595 c0 -27 2 -38 4 -22 2 15 2 37 0 50 -2 12 -4 0 -4 -28z"/>
<path d="M10923 3634 c14 -4 18 -13 14 -31 -3 -16 -1 -21 5 -15 16 16 5 47
-17 49 -18 2 -18 1 -2 -3z"/>
<path d="M11556 3615 c-3 -9 -6 -22 -5 -28 0 -7 5 -1 10 12 5 13 8 26 5 28 -2
2 -6 -3 -10 -12z"/>
<path d="M12563 3570 c0 -36 2 -50 4 -32 2 17 2 47 0 65 -2 17 -4 3 -4 -33z"/>
<path d="M14740 3620 c-8 -5 -10 -10 -5 -10 6 0 17 5 25 10 8 5 11 10 5 10 -5
0 -17 -5 -25 -10z"/>
<path d="M12230 3608 c0 -9 -6 -19 -12 -21 -10 -4 -10 -6 0 -6 14 -1 28 26 18
36 -3 4 -6 -1 -6 -9z"/>
<path d="M12866 3604 c-4 -10 -12 -14 -24 -9 -14 5 -15 4 -4 -6 10 -11 15 -10
29 4 9 9 14 19 11 22 -3 3 -8 -2 -12 -11z"/>
<path d="M12170 3606 c0 -2 8 -10 18 -17 15 -13 16 -12 3 4 -13 16 -21 21 -21
13z"/>
<path d="M11372 3575 c0 -16 2 -22 5 -12 2 9 2 23 0 30 -3 6 -5 -1 -5 -18z"/>
<path d="M13933 3560 c0 -25 2 -35 4 -22 2 12 2 32 0 45 -2 12 -4 2 -4 -23z"/>
<path d="M10250 3578 c0 -5 9 -8 19 -8 11 0 22 3 24 8 3 4 -6 7 -19 7 -13 0
-24 -3 -24 -7z"/>
<path d="M16061 3545 c-2 -44 -10 -45 -340 -46 -174 -1 -350 -5 -391 -9 -42
-4 95 -7 312 -6 381 1 388 1 409 22 12 13 19 29 16 40 -4 17 -5 17 -6 -1z"/>
<path d="M8046 3493 c-6 -14 -5 -15 5 -6 7 7 10 15 7 18 -3 3 -9 -2 -12 -12z"/>
<path d="M14440 3490 c-9 -6 -10 -10 -3 -10 6 0 15 5 18 10 8 12 4 12 -15 0z"/>
<path d="M7389 3473 c-13 -16 -12 -17 4 -4 9 7 17 15 17 17 0 8 -8 3 -21 -13z"/>
<path d="M12945 3480 l-230 -6 227 -2 c143 -1 229 2 233 8 3 6 5 9 3 8 -2 -1
-106 -5 -233 -8z"/>
<path d="M14035 3480 c-30 -4 34 -7 158 -8 132 -1 207 2 207 8 0 11 -283 11
-365 0z"/>
<path d="M14723 3483 c64 -2 170 -2 235 0 64 1 11 3 -118 3 -129 0 -182 -2
-117 -3z"/>
<path d="M12130 3470 c-34 -4 25 -7 153 -8 132 -1 207 2 207 8 0 11 -269 11
-360 0z"/>
<path d="M12518 3473 c7 -3 16 -2 19 1 4 3 -2 6 -13 5 -11 0 -14 -3 -6 -6z"/>
<path d="M7810 3460 l-215 -6 212 -2 c133 -1 214 2 218 8 3 6 5 9 3 8 -2 -1
-100 -5 -218 -8z"/>
<path d="M9535 3460 c-12 -5 68 -9 194 -9 118 -1 212 1 210 3 -9 8 -385 14
-404 6z"/>
<path d="M10215 3460 c-12 -6 59 -7 180 -4 110 3 202 8 204 10 9 8 -365 2
-384 -6z"/>
<path d="M10908 3463 c61 -2 163 -2 225 0 61 1 11 3 -113 3 -124 0 -174 -2
-112 -3z"/>
<path d="M11542 3463 c59 -2 158 -2 220 0 62 1 14 3 -107 3 -121 0 -172 -2
-113 -3z"/>
<path d="M7008 3453 c67 -2 177 -2 245 0 67 1 12 3 -123 3 -135 0 -190 -2
-122 -3z"/>
<path d="M8953 3453 c64 -2 170 -2 235 0 64 1 11 3 -118 3 -129 0 -182 -2
-117 -3z"/>
<path d="M15560 3399 c-27 -11 -40 -26 -40 -49 0 -8 6 -4 13 10 7 13 23 27 37
31 14 4 121 7 238 8 202 1 213 0 233 -20 20 -20 20 -26 13 -242 -3 -122 -9
-226 -12 -232 -3 -7 -1 -7 6 0 6 6 13 97 18 232 l7 221 -26 26 -26 26 -218 -1
c-120 0 -229 -5 -243 -10z"/>
<path d="M14276 3379 c-14 -11 -26 -28 -25 -37 0 -13 3 -11 9 5 16 39 39 43
274 43 l225 0 20 -26 c15 -19 21 -22 21 -11 0 9 -10 23 -22 31 -19 13 -60 16
-249 16 -214 0 -228 -1 -253 -21z"/>
<path d="M14901 3374 c-20 -25 -21 -38 -19 -203 l2 -176 6 183 c4 167 7 185
24 198 16 11 68 14 252 14 230 0 233 0 249 -22 13 -20 14 -52 9 -243 -4 -121
-4 -218 -2 -215 3 3 9 105 13 227 7 216 6 222 -14 242 -20 20 -31 21 -260 21
l-240 0 -20 -26z"/>
<path d="M12503 3383 c65 -2 168 -2 230 0 62 1 9 3 -118 3 -126 0 -177 -2
-112 -3z"/>
<path d="M12995 3365 c-16 -15 -25 -35 -24 -52 1 -26 2 -26 9 7 14 59 20 60
276 60 205 0 235 -2 250 -17 15 -15 16 -40 12 -245 -4 -199 -6 -231 -21 -246
-16 -15 -44 -17 -257 -17 -131 0 -235 -4 -231 -8 4 -4 112 -7 239 -5 225 3
232 4 254 26 22 21 23 29 26 256 l4 233 -23 17 c-20 14 -57 16 -257 16 l-233
0 -24 -25z"/>
<path d="M13638 3379 c-10 -5 -18 -15 -18 -21 0 -6 8 -4 18 5 15 13 47 17 177
20 l160 3 -160 1 c-94 2 -167 -2 -177 -8z"/>
<path d="M14141 3369 c22 -22 22 -25 15 -248 -6 -184 -10 -229 -23 -243 -14
-16 -43 -18 -252 -21 l-236 -2 236 -3 c233 -2 236 -2 256 21 20 20 22 38 29
244 6 198 5 225 -10 248 -9 14 -21 25 -26 25 -6 0 0 -10 11 -21z"/>
<path d="M10592 3373 c59 -2 158 -2 220 0 62 1 14 3 -107 3 -121 0 -172 -2
-113 -3z"/>
<path d="M11337 3370 c133 -3 245 -9 250 -13 4 -5 10 -111 13 -235 l6 -227 2
223 c2 210 1 223 -18 242 -19 19 -32 20 -257 18 l-238 -2 242 -6z"/>
<path d="M11718 3367 c-9 -7 -19 -26 -23 -43 -6 -29 -6 -29 9 4 8 18 25 36 38
42 13 5 16 9 8 9 -8 0 -23 -5 -32 -12z"/>
<path d="M11888 3373 c6 -2 18 -2 25 0 6 3 1 5 -13 5 -14 0 -19 -2 -12 -5z"/>
<path d="M12218 3364 c12 -8 23 -25 23 -37 1 -18 2 -19 6 -4 5 19 -22 57 -41
57 -6 0 0 -7 12 -16z"/>
<path d="M12344 3355 c-9 -14 -14 -28 -10 -32 3 -3 6 -1 6 5 0 6 10 20 22 32
12 11 17 20 10 20 -6 0 -19 -11 -28 -25z"/>
<path d="M6928 3363 c6 -2 18 -2 25 0 6 3 1 5 -13 5 -14 0 -19 -2 -12 -5z"/>
<path d="M7192 3363 c92 -2 245 -2 340 0 95 1 20 3 -167 3 -187 0 -265 -2
-173 -3z"/>
<path d="M7845 3345 c-14 -13 -25 -34 -24 -47 1 -18 3 -16 10 9 6 19 21 39 37
47 15 9 21 15 14 16 -7 0 -24 -11 -37 -25z"/>
<path d="M7965 3363 c143 -7 402 -7 392 -1 -7 4 -111 7 -232 6 -121 -1 -193
-3 -160 -5z"/>
<path d="M8490 3350 c-11 -11 -20 -28 -19 -37 0 -15 2 -15 9 2 17 43 28 45
276 48 l239 2 -242 3 c-231 2 -244 1 -263 -18z"/>
<path d="M9631 3367 c2 -1 13 -9 24 -17 19 -14 19 -14 6 3 -7 9 -18 17 -24 17
-6 0 -8 -1 -6 -3z"/>
<path d="M9790 3360 c-8 -5 -10 -10 -5 -10 6 0 17 5 25 10 8 5 11 10 5 10 -5
0 -17 -5 -25 -10z"/>
<path d="M10425 3350 c-26 -28 -15 -31 12 -3 12 13 19 23 14 23 -4 0 -16 -9
-26 -20z"/>
<path d="M11073 3358 c-15 -20 -25 -38 -20 -38 3 0 12 11 21 25 17 26 16 35
-1 13z"/>
<path d="M12876 3345 c8 -37 14 -45 14 -19 0 10 -5 26 -10 34 -8 11 -9 7 -4
-15z"/>
<path d="M9012 3338 c7 -15 15 -23 17 -17 2 6 -4 18 -13 27 -15 15 -15 15 -4
-10z"/>
<path d="M6855 3329 c-4 -6 -5 -12 -2 -15 2 -3 7 2 10 11 7 17 1 20 -8 4z"/>
<path d="M10961 3314 c0 -11 3 -14 6 -6 3 7 2 16 -1 19 -3 4 -6 -2 -5 -13z"/>
<path d="M15514 3115 c0 -121 2 -169 3 -107 2 62 2 161 0 220 -1 59 -3 8 -3
-113z"/>
<path d="M12884 3110 c0 -107 2 -151 3 -97 2 53 2 141 0 195 -1 53 -3 9 -3
-98z"/>
<path d="M7730 3077 c0 -160 -3 -207 -14 -223 -14 -18 -33 -19 -423 -24 l-408
-5 403 -3 403 -2 24 25 c25 24 25 25 25 230 0 113 -2 205 -5 205 -3 0 -5 -91
-5 -203z"/>
<path d="M12244 3090 c0 -107 2 -151 3 -97 2 53 2 141 0 195 -1 53 -3 9 -3
-98z"/>
<path d="M12974 3150 c0 -74 1 -105 3 -67 2 37 2 97 0 135 -2 37 -3 6 -3 -68z"/>
<path d="M14794 3095 c0 -99 2 -138 3 -87 2 51 2 132 0 180 -1 48 -3 6 -3 -93z"/>
<path d="M8384 3090 c0 -96 2 -136 3 -87 2 48 2 126 0 175 -1 48 -3 8 -3 -88z"/>
<path d="M10964 3135 c0 -71 1 -99 3 -62 2 37 2 96 0 130 -2 34 -3 4 -3 -68z"/>
<path d="M9674 3085 c0 -93 2 -133 3 -88 2 45 2 122 0 170 -1 48 -3 12 -3 -82z"/>
<path d="M14462 3210 c-2 -49 -15 -70 -44 -70 -18 0 -24 15 -31 75 -3 26 -4
25 -6 -8 -1 -50 14 -77 43 -77 35 0 48 22 43 77 l-3 48 -2 -45z"/>
<path d="M15692 3225 c0 -16 2 -22 5 -12 2 9 2 23 0 30 -3 6 -5 -1 -5 -18z"/>
<path d="M13132 3224 c-25 -17 -31 -71 -10 -92 24 -24 88 -9 88 22 0 5 -6 2
-13 -8 -16 -21 -55 -18 -70 5 -14 23 0 67 24 74 13 4 27 0 40 -11 10 -9 19
-12 19 -6 0 11 -31 32 -47 32 -5 0 -19 -7 -31 -16z"/>
<path d="M13757 3234 c-4 -4 -6 -32 -6 -63 1 -31 4 -44 6 -28 3 20 10 27 27
27 62 0 77 63 16 68 -20 2 -39 0 -43 -4z m68 -14 c10 -17 -16 -41 -39 -38 -13
2 -22 12 -24 26 -3 19 1 22 27 22 16 0 33 -5 36 -10z"/>
<path d="M14244 3070 c0 -96 2 -136 3 -87 2 48 2 126 0 175 -1 48 -3 8 -3 -88z"/>
<path d="M9903 3170 c0 -36 2 -53 4 -37 6 35 36 36 59 2 9 -14 19 -24 21 -21
3 3 -2 15 -11 27 -14 20 -14 23 1 34 17 13 12 45 -8 45 -8 0 -8 -4 0 -13 14
-18 -5 -37 -35 -37 -18 0 -24 7 -27 33 -2 17 -4 3 -4 -33z"/>
<path d="M10583 3170 c0 -36 2 -50 4 -32 2 17 2 47 0 65 -2 17 -4 3 -4 -33z"/>
<path d="M11228 3223 c17 -2 32 -7 32 -9 0 -3 -16 -25 -36 -50 -40 -49 -35
-59 28 -51 l33 4 -37 1 c-21 1 -38 6 -38 10 0 5 16 27 35 49 19 23 35 44 35
47 0 3 -19 5 -42 4 -37 -1 -39 -2 -10 -5z"/>
<path d="M11834 3175 c1 -42 4 -50 21 -52 15 -1 15 0 3 3 -12 4 -18 19 -21 52
l-4 47 1 -50z"/>
<path d="M11909 3186 c-4 -27 -13 -52 -20 -57 -10 -6 -10 -9 -2 -9 19 0 34 38
31 78 -3 36 -3 36 -9 -12z"/>
<path d="M12473 3175 c0 -33 2 -45 4 -27 2 18 2 45 0 60 -2 15 -4 0 -4 -33z"/>
<path d="M15040 3226 c0 -2 6 -9 14 -15 10 -9 15 -8 20 4 4 10 -1 15 -14 15
-11 0 -20 -2 -20 -4z"/>
<path d="M7973 3208 c-27 -35 -18 -96 14 -99 58 -6 69 -3 71 16 5 47 3 66 -8
80 -15 18 -64 20 -77 3z m72 -40 c0 -21 -4 -38 -9 -37 -5 0 -12 -5 -16 -11 -5
-9 -13 -9 -27 -1 -25 13 -33 39 -22 70 7 18 15 22 41 19 31 -3 33 -5 33 -40z"/>
<path d="M8612 3210 c0 -8 4 -26 8 -40 6 -20 8 -21 8 -5 0 11 -3 29 -8 40 -5
12 -8 14 -8 5z"/>
<path d="M8670 3210 c0 -5 5 -10 10 -10 6 0 10 -8 10 -17 1 -10 7 -31 14 -48
l14 -30 12 30 c6 17 13 44 16 60 2 17 -3 8 -12 -20 l-17 -50 -14 48 c-8 26
-18 47 -24 47 -5 0 -9 -4 -9 -10z"/>
<path d="M9250 3165 l0 -55 43 2 42 1 -37 4 c-29 3 -38 9 -38 23 0 14 9 20 33
23 l32 4 -32 1 c-25 2 -33 7 -33 21 0 15 8 21 33 24 31 4 31 4 -5 5 l-38 2 0
-55z"/>
<path d="M5366 3193 c-6 -14 -5 -15 5 -6 7 7 10 15 7 18 -3 3 -9 -2 -12 -12z"/>
<path d="M7822 3175 c0 -16 2 -22 5 -12 2 9 2 23 0 30 -3 6 -5 -1 -5 -18z"/>
<path d="M9020 3037 c0 -125 -3 -168 -14 -183 -13 -18 -32 -19 -253 -24 l-238
-6 233 -2 233 -2 24 25 c25 24 25 27 25 190 0 91 -2 165 -5 165 -3 0 -5 -73
-5 -163z"/>
<path d="M8655 3161 c-4 -17 -11 -29 -16 -25 -5 3 -9 -2 -9 -10 0 -9 4 -16 9
-16 11 0 36 69 28 76 -3 3 -8 -8 -12 -25z"/>
<path d="M10312 3019 c-2 -127 -4 -148 -20 -162 -16 -15 -47 -17 -225 -17
-123 0 -207 -4 -207 -9 0 -6 81 -8 208 -4 270 7 254 -6 249 194 l-3 144 -2
-146z"/>
<path d="M5315 3124 c-9 -14 -14 -28 -12 -31 3 -3 13 9 22 26 19 38 14 41 -10
5z"/>
<path d="M7017 3132 c6 -4 13 -25 16 -47 l4 -40 1 42 c2 30 7 43 20 46 9 3 1
5 -18 6 -19 0 -30 -3 -23 -7z"/>
<path d="M7112 3080 c0 -19 2 -27 5 -17 2 9 2 25 0 35 -3 9 -5 1 -5 -18z"/>
<path d="M7147 3103 c-9 -9 -9 -53 1 -53 4 0 7 14 7 30 0 17 0 30 -1 30 0 0
-4 -3 -7 -7z"/>
<path d="M7187 3090 c3 -11 -1 -28 -8 -38 -13 -15 -12 -16 4 -3 18 14 23 46 8
55 -5 4 -7 -3 -4 -14z"/>
<path d="M5107 2928 c-82 -164 -173 -376 -165 -383 2 -2 19 31 38 73 18 42 76
167 127 276 51 110 91 201 89 203 -2 2 -42 -74 -89 -169z"/>
<path d="M9114 2985 c0 -66 1 -92 3 -57 2 34 2 88 0 120 -2 31 -3 3 -3 -63z"/>
<path d="M15700 3025 c-7 -25 -10 -48 -6 -52 3 -3 6 1 6 10 0 10 3 17 8 17 4
0 8 16 9 35 4 47 -2 44 -17 -10z"/>
<path d="M15669 3048 c0 -2 -2 -21 -4 -43 l-4 -40 14 35 c17 44 18 50 5 50 -5
0 -10 -1 -11 -2z"/>
<path d="M15051 3028 c0 -9 -9 -19 -18 -21 -16 -4 -16 -5 -1 -6 9 0 19 -9 21
-18 4 -16 5 -16 6 -1 0 9 9 19 19 21 15 4 15 5 0 6 -9 0 -19 9 -21 19 -4 15
-5 15 -6 0z"/>
<path d="M15248 3003 c7 -3 16 -2 19 1 4 3 -2 6 -13 5 -11 0 -14 -3 -6 -6z"/>
<path d="M9462 2970 c0 -14 2 -19 5 -12 2 6 2 18 0 25 -3 6 -5 1 -5 -13z"/>
<path d="M8192 2955 c0 -16 2 -22 5 -12 2 9 2 23 0 30 -3 6 -5 -1 -5 -18z"/>
<path d="M10948 2887 c-3 -19 -2 -25 4 -19 6 6 8 18 6 28 -3 14 -5 12 -10 -9z"/>
<path d="M14880 2904 c0 -5 7 -18 16 -29 13 -17 28 -20 122 -23 59 -1 166 1
237 6 128 9 126 9 -105 10 -229 1 -235 1 -252 22 -10 12 -18 18 -18 14z"/>
<path d="M11580 2869 c-14 -17 -38 -20 -250 -27 l-235 -9 222 -1 c225 -2 265
3 278 36 8 22 2 22 -15 1z"/>
<path d="M12222 2870 c-11 -19 -25 -20 -237 -20 -161 0 -225 -3 -225 -11 0 -9
59 -10 223 -5 199 7 224 9 241 26 11 11 18 22 15 24 -3 3 -10 -4 -17 -14z"/>
<path d="M14264 2873 c19 -23 23 -23 247 -23 125 0 230 3 232 8 3 4 -99 6
-225 4 -209 -2 -233 -1 -252 15 l-21 18 19 -22z"/>
<path d="M8366 2863 c-6 -14 -5 -15 5 -6 7 7 10 15 7 18 -3 3 -9 -2 -12 -12z"/>
<path d="M15547 2868 c6 -10 444 -10 460 0 7 4 -95 8 -226 7 -132 0 -237 -3
-234 -7z"/>
<path d="M10680 2840 l-225 -6 230 -2 c135 -1 236 2 245 8 12 8 11 9 -5 8 -11
-1 -121 -5 -245 -8z"/>
<path d="M12483 2843 c64 -2 170 -2 235 0 64 1 11 3 -118 3 -129 0 -182 -2
-117 -3z"/>
<path d="M9210 2830 c-25 -4 53 -8 180 -8 131 -1 231 2 240 8 17 11 -348 11
-420 0z"/>
<path d="M7998 2823 c61 -2 163 -2 225 0 61 1 11 3 -113 3 -124 0 -174 -2
-112 -3z"/>
<path d="M15355 2783 c-177 -2 -283 -7 -290 -14 -7 -7 -5 -9 5 -5 8 2 223 7
477 10 365 5 464 4 473 -6 6 -7 17 -22 25 -33 14 -19 14 -19 8 3 -12 48 -33
52 -233 50 -102 -2 -311 -4 -465 -5z"/>
<path d="M14853 2773 c9 -2 23 -2 30 0 6 3 -1 5 -18 5 -16 0 -22 -2 -12 -5z"/>
<path d="M13413 2760 c281 -6 262 6 253 -164 -3 -66 -6 -166 -6 -223 0 -153
16 -144 -279 -141 -132 2 -237 0 -234 -4 2 -5 110 -8 239 -8 l235 0 24 25 c23
22 25 32 25 113 0 49 3 150 7 224 l6 136 -26 26 -26 26 -223 -2 -223 -2 228
-6z"/>
<path d="M13918 2763 c68 -2 176 -2 240 0 64 1 9 3 -123 3 -132 0 -185 -2
-117 -3z"/>
<path d="M14427 2763 c-3 -5 29 -7 71 -5 135 4 150 9 40 10 -59 1 -109 -1
-111 -5z"/>
<path d="M14921 2749 c21 -21 22 -27 17 -248 -4 -145 -3 -185 2 -111 14 211
12 333 -6 358 -8 12 -19 22 -25 22 -5 0 1 -10 12 -21z"/>
<path d="M11502 2753 c37 -2 100 -2 140 0 40 1 10 3 -67 3 -77 0 -110 -1 -73
-3z"/>
<path d="M11866 2739 c-25 -20 -26 -23 -24 -117 l2 -97 3 95 c5 137 -10 130
278 130 253 0 257 -1 268 -60 l4 -25 2 26 c0 15 -8 34 -22 47 -23 21 -31 22
-254 22 -218 0 -232 -1 -257 -21z"/>
<path d="M12501 2736 c-13 -14 -21 -31 -18 -38 4 -9 6 -8 6 3 1 9 9 23 19 32
15 14 48 17 198 20 l179 2 -181 3 c-180 2 -181 2 -203 -22z"/>
<path d="M12990 2753 c35 -14 39 -36 39 -183 -1 -207 -11 -319 -29 -330 -8 -5
-98 -10 -200 -10 -102 -1 -203 -5 -225 -10 -27 -6 34 -8 181 -6 223 4 255 9
268 43 4 9 10 115 13 234 5 194 4 221 -11 243 -9 14 -24 26 -34 25 -14 0 -14
-2 -2 -6z"/>
<path d="M13136 2741 c-12 -13 -16 -30 -13 -53 l4 -33 1 37 c2 26 9 42 24 52
12 9 18 16 12 16 -6 0 -19 -9 -28 -19z"/>
<path d="M14293 2731 c8 -23 13 -28 15 -16 2 10 -3 25 -12 33 -14 15 -15 13
-3 -17z"/>
<path d="M15036 2745 c-3 -9 -5 -33 -5 -53 2 -33 2 -32 9 13 8 53 6 66 -4 40z"/>
<path d="M9548 2743 c18 -2 45 -2 60 0 15 2 0 4 -33 4 -33 0 -45 -2 -27 -4z"/>
<path d="M9698 2743 c12 -2 32 -2 45 0 12 2 2 4 -23 4 -25 0 -35 -2 -22 -4z"/>
<path d="M10083 2743 c64 -2 170 -2 235 0 64 1 11 3 -118 3 -129 0 -182 -2
-117 -3z"/>
<path d="M10580 2730 c-11 -11 -20 -25 -20 -31 0 -7 9 0 21 15 l20 26 238 0
c225 0 239 -1 256 -20 17 -19 18 -36 12 -247 -5 -150 -11 -231 -19 -242 -11
-15 -10 -15 6 0 15 14 18 44 23 242 5 201 4 229 -11 251 l-16 26 -245 0 c-232
0 -246 -1 -265 -20z"/>
<path d="M11216 2731 c-10 -11 -16 -28 -13 -38 4 -15 5 -14 6 4 1 13 12 28 29
37 16 9 21 15 11 16 -9 0 -24 -9 -33 -19z"/>
<path d="M11732 2734 c15 -17 18 -48 21 -225 l2 -204 3 206 c2 203 2 206 -20
225 -23 19 -23 19 -6 -2z"/>
<path d="M13765 2729 c-10 -30 -2 -32 12 -3 6 13 7 24 3 24 -5 0 -12 -9 -15
-21z"/>
<path d="M6913 2733 c9 -2 23 -2 30 0 6 3 -1 5 -18 5 -16 0 -22 -2 -12 -5z"/>
<path d="M7183 2733 c126 -2 328 -2 450 0 122 1 20 2 -228 2 -247 0 -347 -1
-222 -2z"/>
<path d="M8163 2733 c65 -2 168 -2 230 0 62 1 9 3 -118 3 -126 0 -177 -2 -112
-3z"/>
<path d="M8823 2733 c43 -2 110 -2 150 0 40 1 5 3 -78 3 -82 0 -115 -2 -72 -3z"/>
<path d="M9157 2714 l26 -26 -6 -157 c-4 -86 -7 -186 -7 -223 0 -98 1 -98
-193 -99 -89 -1 -191 -5 -227 -9 -46 -5 -2 -7 147 -8 116 -1 223 2 237 8 44
16 47 37 49 281 2 218 1 231 -17 245 -32 23 -37 16 -9 -12z"/>
<path d="M9290 2720 c-11 -11 -20 -30 -19 -42 1 -19 3 -17 10 8 5 17 19 36 31
42 13 6 17 11 11 11 -7 1 -22 -8 -33 -19z"/>
<path d="M9924 2715 c-9 -14 -14 -28 -10 -32 3 -3 6 -1 6 5 0 6 10 20 22 32
12 11 17 20 10 20 -6 0 -19 -11 -28 -25z"/>
<path d="M10456 2711 c9 -17 17 -31 19 -31 8 0 -9 40 -21 51 -10 8 -10 3 2
-20z"/>
<path d="M8630 2704 c-6 -14 -10 -33 -9 -42 0 -9 5 -1 11 18 5 19 15 38 21 42
9 6 9 8 -1 8 -7 0 -17 -12 -22 -26z"/>
<path d="M6855 2709 c-4 -6 -5 -12 -2 -15 2 -3 7 2 10 11 7 17 1 20 -8 4z"/>
<path d="M14394 2545 c0 -99 2 -138 3 -87 2 51 2 132 0 180 -1 48 -3 6 -3 -93z"/>
<path d="M7881 2684 c0 -11 3 -14 6 -6 3 7 2 16 -1 19 -3 4 -6 -2 -5 -13z"/>
<path d="M8531 2684 c0 -11 3 -14 6 -6 3 7 2 16 -1 19 -3 4 -6 -2 -5 -13z"/>
<path d="M16046 2665 c-3 -9 -6 -95 -6 -190 0 -150 -2 -176 -18 -194 -17 -22
-22 -22 -482 -30 -388 -6 -469 -5 -490 6 l-25 14 22 -19 c22 -19 37 -20 460
-15 241 2 452 6 469 9 64 9 68 25 74 238 3 105 5 192 4 194 -1 2 -4 -4 -8 -13z"/>
<path d="M12394 2505 c0 -88 2 -123 3 -77 2 46 2 118 0 160 -1 42 -3 5 -3 -83z"/>
<path d="M14302 2480 c-2 -125 -6 -193 -15 -210 l-13 -25 -229 -5 c-127 -3
-241 -2 -255 3 -24 7 -24 7 -5 -9 17 -13 52 -15 246 -12 206 3 229 5 248 22
29 26 32 57 29 251 l-4 170 -2 -185z"/>
<path d="M8532 2448 l-2 -207 -26 -20 c-25 -20 -41 -21 -248 -23 l-221 -3 205
-3 c113 -1 219 0 237 3 59 11 64 31 60 257 l-2 203 -3 -207z"/>
<path d="M13121 2624 c0 -11 3 -14 6 -6 3 7 2 16 -1 19 -3 4 -6 -2 -5 -13z"/>
<path d="M9913 2555 c0 -44 2 -61 4 -37 2 23 2 59 0 80 -2 20 -4 1 -4 -43z"/>
<path d="M13919 2610 c-41 -24 -24 -110 21 -110 26 0 60 34 60 60 0 22 -33 60
-52 60 -7 0 -20 -5 -29 -10z m55 -16 c31 -30 9 -84 -35 -84 -11 0 -24 11 -31
25 -9 19 -8 29 6 50 19 29 38 32 60 9z"/>
<path d="M14545 2578 c-24 -61 -29 -76 -15 -55 14 22 70 24 70 2 0 -8 4 -15 9
-15 5 0 0 25 -12 55 -11 30 -23 55 -27 55 -4 0 -16 -19 -25 -42z m38 1 c3 -12
0 -22 -9 -26 -20 -8 -27 2 -19 26 8 27 21 27 28 0z"/>
<path d="M7880 2429 c0 -106 -4 -189 -11 -202 -10 -21 -10 -21 5 -3 13 16 16
52 16 203 0 101 -2 183 -5 183 -3 0 -5 -81 -5 -181z"/>
<path d="M8624 2460 c0 -85 2 -120 3 -77 2 42 2 112 0 155 -1 42 -3 7 -3 -78z"/>
<path d="M9824 2435 c0 -99 2 -138 3 -87 2 51 2 132 0 180 -1 48 -3 6 -3 -93z"/>
<path d="M12623 2555 c-1 -33 1 -51 4 -40 9 38 23 41 49 10 28 -35 32 -22 4
15 -19 25 -19 25 3 50 19 22 18 22 -9 -2 -16 -16 -33 -28 -36 -28 -4 0 -9 12
-11 28 -2 15 -4 0 -4 -33z"/>
<path d="M13262 2558 l-2 -58 38 2 c36 1 36 1 5 5 -31 4 -32 6 -36 56 l-3 52
-2 -57z"/>
<path d="M13754 2440 c0 -96 2 -136 3 -87 2 48 2 126 0 175 -1 48 -3 8 -3 -88z"/>
<path d="M10722 2593 c-7 -3 -17 -16 -22 -29 -21 -53 30 -101 79 -74 29 15 28
50 -1 49 -17 -1 -19 -2 -5 -6 26 -7 21 -32 -8 -39 -35 -9 -57 12 -53 49 4 39
30 57 58 39 27 -17 39 -15 16 3 -20 15 -40 18 -64 8z"/>
<path d="M11343 2545 c0 -33 2 -48 4 -32 3 17 11 27 21 27 14 0 14 1 0 13 -9
6 -18 21 -21 32 -3 11 -5 -7 -4 -40z"/>
<path d="M11417 2575 c-2 -14 -1 -40 3 -58 7 -27 8 -24 9 26 1 61 -4 73 -12
32z"/>
<path d="M12022 2553 c-2 -54 -14 -67 -41 -40 -10 10 -11 9 -6 -5 8 -21 43
-24 51 -4 3 7 4 33 1 57 -3 44 -4 43 -5 -8z"/>
<path d="M8146 2558 c-8 -18 -17 -44 -20 -58 -6 -21 -5 -22 4 -7 6 9 22 17 35
17 13 0 29 -8 34 -17 6 -10 11 -13 11 -6 0 16 -38 103 -45 103 -3 0 -12 -15
-19 -32z m34 -19 c0 -12 -7 -19 -20 -19 -17 0 -18 3 -8 25 12 27 28 24 28 -6z"/>
<path d="M8774 2575 c-10 -25 3 -42 35 -48 19 -4 31 -13 31 -22 0 -22 -29 -31
-52 -16 -11 7 -22 10 -25 7 -3 -3 7 -11 21 -18 20 -8 32 -9 44 -1 31 19 26 42
-13 59 -20 8 -35 20 -32 27 5 15 47 22 47 8 0 -6 5 -11 11 -11 8 0 8 5 -1 15
-7 8 -23 15 -37 15 -13 0 -26 -7 -29 -15z"/>
<path d="M9410 2535 l0 -55 35 0 c37 0 55 20 55 62 0 33 -18 48 -57 48 l-33 0
0 -55z m76 21 c10 -41 -4 -66 -37 -66 -28 0 -29 2 -29 45 0 43 1 45 30 45 23
0 31 -5 36 -24z"/>
<path d="M10051 2533 c1 -62 6 -56 11 15 2 23 0 42 -4 42 -5 0 -7 -26 -7 -57z"/>
<path d="M10464 2425 c0 -93 2 -133 3 -88 2 45 2 122 0 170 -1 48 -3 12 -3
-82z"/>
<path d="M15024 2430 c0 -85 2 -120 3 -77 2 42 2 112 0 155 -1 42 -3 7 -3 -78z"/>
<path d="M15770 2507 c0 -20 3 -38 8 -40 9 -6 8 61 -2 70 -3 3 -6 -10 -6 -30z"/>
<path d="M15814 2515 c-4 -9 -4 -19 0 -22 3 -4 6 1 6 10 0 22 27 22 34 0 4
-14 4 -14 3 2 -3 25 -35 32 -43 10z"/>
<path d="M15881 2493 c2 -35 2 -35 6 -8 3 16 10 33 16 37 8 5 6 8 -5 8 -14 0
-18 -8 -17 -37z"/>
<path d="M15612 2493 c2 -23 8 -28 31 -29 27 -1 27 -1 1 3 -22 4 -25 8 -20 29
4 14 2 24 -4 24 -6 0 -10 -12 -8 -27z"/>
<path d="M4912 2485 c-17 -37 -14 -45 4 -12 9 16 14 31 11 33 -2 2 -9 -7 -15
-21z"/>
<path d="M6995 2490 c-8 -24 2 -60 17 -60 6 0 6 6 -2 15 -7 8 -10 25 -6 40 8
30 0 34 -9 5z"/>
<path d="M15742 2490 c0 -14 2 -19 5 -12 2 6 2 18 0 25 -3 6 -5 1 -5 -13z"/>
<path d="M7132 2460 c0 -19 2 -27 5 -17 2 9 2 25 0 35 -3 9 -5 1 -5 -18z"/>
<path d="M7205 2460 c0 -15 3 -26 8 -23 4 2 7 13 7 23 0 10 -3 21 -7 23 -5 3
-8 -8 -8 -23z"/>
<path d="M7240 2478 c0 -9 9 -20 20 -23 11 -4 17 -11 14 -17 -5 -7 -2 -8 5 -3
10 6 10 10 -1 19 -7 6 -19 17 -25 25 -11 13 -13 13 -13 -1z"/>
<path d="M7352 2460 c0 -19 2 -27 5 -17 2 9 2 25 0 35 -3 9 -5 1 -5 -18z"/>
<path d="M7384 2475 c-3 -8 -4 -20 -2 -27 3 -7 7 -1 10 15 6 29 1 36 -8 12z"/>
<path d="M15820 2466 c4 -4 16 -4 26 2 16 9 14 10 -8 9 -15 -1 -23 -6 -18 -11z"/>
<path d="M16243 2440 c0 -25 2 -35 4 -22 2 12 2 32 0 45 -2 12 -4 2 -4 -23z"/>
<path d="M7523 2455 c-3 -9 -3 -19 1 -22 3 -4 6 1 6 10 0 22 9 21 27 0 13 -16
13 -16 3 5 -12 26 -28 29 -37 7z"/>
<path d="M9913 2430 c0 -25 2 -35 4 -22 2 12 2 32 0 45 -2 12 -4 2 -4 -23z"/>
<path d="M7095 2449 c-4 -6 -5 -12 -2 -15 2 -3 7 2 10 11 7 17 1 20 -8 4z"/>
<path d="M13114 2360 c0 -52 1 -74 3 -47 2 26 2 68 0 95 -2 26 -3 4 -3 -48z"/>
<path d="M4841 2319 c-28 -67 -50 -123 -48 -125 2 -2 27 51 56 117 28 67 50
124 47 126 -2 2 -27 -51 -55 -118z"/>
<path d="M1040 2418 c0 -8 84 -110 188 -225 103 -115 214 -240 247 -278 33
-39 83 -95 111 -125 67 -73 492 -554 798 -905 91 -105 171 -185 184 -185 19 0
14 19 -9 38 -12 9 -54 60 -94 112 -40 52 -106 131 -146 176 -41 44 -130 143
-199 220 -151 168 -195 217 -326 353 -210 220 -459 498 -606 677 -78 95 -148
162 -148 142z"/>
<path d="M9263 2285 c0 -22 2 -30 4 -17 2 12 2 30 0 40 -3 9 -5 -1 -4 -23z"/>
<path d="M11832 2295 c0 -16 2 -22 5 -12 2 9 2 23 0 30 -3 6 -5 -1 -5 -18z"/>
<path d="M11741 2269 c0 -9 -9 -23 -19 -32 -15 -14 -52 -17 -243 -20 l-224 -2
226 -3 c206 -2 229 0 249 16 14 11 20 25 17 37 -3 14 -5 15 -6 4z"/>
<path d="M12381 2264 c0 -11 3 -14 6 -6 3 7 2 16 -1 19 -3 4 -6 -2 -5 -13z"/>
<path d="M9802 2230 c-11 -19 -25 -20 -227 -20 -142 0 -215 -4 -215 -10 0 -8
68 -9 213 -5 190 6 214 8 231 25 11 11 18 22 15 24 -3 3 -10 -4 -17 -14z"/>
<path d="M14417 2238 c2 -5 112 -8 243 -8 131 0 241 3 243 8 3 4 -107 7 -243
7 -136 0 -246 -3 -243 -7z"/>
<path d="M10439 2223 c-13 -16 -12 -17 4 -4 16 13 21 21 13 21 -2 0 -10 -8
-17 -17z"/>
<path d="M12035 2220 l-160 -6 232 -2 c127 -1 234 1 236 6 6 9 -99 10 -308 2z"/>
<path d="M10690 2210 c-60 -4 -21 -7 135 -8 128 -1 226 2 235 8 17 11 -224 11
-370 0z"/>
<path d="M7365 2200 l-480 -5 477 -3 c310 -1 479 2 483 8 3 6 5 9 3 8 -2 -2
-219 -5 -483 -8z"/>
<path d="M10073 2203 c64 -2 170 -2 235 0 64 1 11 3 -118 3 -129 0 -182 -2
-117 -3z"/>
<path d="M4775 2159 c-4 -6 -5 -12 -2 -15 2 -3 7 2 10 11 7 17 1 20 -8 4z"/>
<path d="M15903 2161 c137 -8 130 7 122 -266 -4 -121 -11 -227 -16 -236 -7
-15 -41 -18 -251 -23 -420 -10 -1026 -13 -1040 -5 -10 6 -14 59 -18 206 l-6
198 -2 -192 c-2 -181 -1 -194 18 -213 19 -19 30 -20 622 -14 332 3 618 7 636
10 58 9 62 27 69 276 l6 224 -28 22 c-24 19 -39 22 -119 20 l-91 -2 98 -5z"/>
<path d="M15248 2153 c101 -2 263 -2 360 0 97 1 15 2 -183 2 -198 0 -278 -1
-177 -2z"/>
<path d="M14102 2140 c-36 -15 -42 -51 -40 -233 l2 -172 6 180 c3 99 9 187 13
197 13 25 37 28 274 28 216 0 222 -1 237 -22 13 -18 14 -54 9 -237 -4 -151 -9
-222 -18 -237 -13 -20 -25 -21 -237 -27 -123 -4 -233 -4 -245 -1 -21 6 -38 37
-46 84 -4 24 -4 24 -6 -3 -1 -34 22 -82 44 -91 21 -8 411 -6 449 3 58 12 64
34 71 277 l7 222 -23 21 c-22 20 -32 21 -248 20 -124 0 -236 -4 -249 -9z"/>
<path d="M14716 2131 c-10 -11 -16 -28 -13 -38 4 -15 5 -15 6 3 1 27 18 41 56
47 l30 4 -31 2 c-19 0 -37 -6 -48 -18z"/>
<path d="M14823 2143 c15 -2 39 -2 55 0 15 2 2 4 -28 4 -30 0 -43 -2 -27 -4z"/>
<path d="M12573 2133 c15 -2 37 -2 50 0 12 2 0 4 -28 4 -27 0 -38 -2 -22 -4z"/>
<path d="M12816 2119 c-15 -12 -25 -29 -25 -42 2 -22 2 -22 6 0 9 49 30 53
280 53 l233 0 15 -24 c13 -20 15 -54 9 -245 -6 -190 -10 -223 -24 -236 -14
-13 -62 -17 -251 -24 l-234 -8 222 -1 c225 -2 264 3 281 35 6 10 13 119 17
243 7 221 7 225 -14 248 -21 22 -26 22 -255 22 -221 0 -235 -1 -260 -21z"/>
<path d="M13446 2121 c-10 -11 -16 -29 -13 -43 4 -22 4 -21 6 3 2 39 19 48 96
52 l70 3 -71 2 c-59 2 -74 -1 -88 -17z"/>
<path d="M13940 2127 l25 -13 0 -233 c0 -233 0 -233 -24 -252 -21 -17 -42 -19
-254 -19 -127 0 -228 -3 -225 -6 10 -9 459 -4 478 6 33 18 40 67 40 286 0 180
-2 215 -16 228 -8 9 -23 16 -32 16 -12 0 -9 -4 8 -13z"/>
<path d="M4666 1938 c-52 -106 -109 -229 -126 -273 -18 -44 -41 -100 -52 -125
-12 -25 -29 -67 -39 -95 -10 -27 -32 -88 -49 -135 -51 -137 -61 -178 -58 -233
l3 -52 29 85 c47 141 222 599 303 793 91 219 94 227 88 227 -2 0 -46 -87 -99
-192z"/>
<path d="M11182 2120 c150 -4 211 -9 220 -18 9 -9 14 -71 18 -225 l6 -212 2
208 2 208 -25 24 -24 25 -203 -2 -203 -2 207 -6z"/>
<path d="M11536 2109 c-25 -20 -26 -23 -24 -127 l2 -107 3 105 c5 148 -12 140
279 140 l234 0 21 -32 c17 -28 20 -29 14 -8 -13 48 -23 50 -271 50 -219 0
-233 -1 -258 -21z"/>
<path d="M12170 2110 c-11 -11 -20 -25 -20 -31 0 -7 9 0 20 14 18 23 30 27 88
30 l67 3 -67 2 c-56 2 -71 -1 -88 -18z"/>
<path d="M12682 2108 c21 -21 21 -25 15 -246 -5 -185 -9 -229 -22 -241 -13
-13 -57 -17 -258 -21 l-242 -6 241 -2 c193 -2 244 1 259 12 24 17 33 109 34
336 1 117 -2 150 -15 168 -8 12 -19 22 -25 22 -5 0 1 -10 13 -22z"/>
<path d="M9318 2113 c23 -2 61 -2 85 0 23 2 4 4 -43 4 -47 0 -66 -2 -42 -4z"/>
<path d="M9753 2113 c64 -2 170 -2 235 0 64 1 11 3 -118 3 -129 0 -182 -2
-117 -3z"/>
<path d="M10252 2104 c-15 -10 -22 -25 -21 -47 l1 -32 8 33 c4 18 11 36 15 40
3 4 102 9 218 12 l212 6 -205 2 c-172 2 -209 -1 -228 -14z"/>
<path d="M10735 2110 c40 -15 44 -33 48 -176 l3 -139 2 141 c2 129 0 142 -18
162 -12 12 -28 22 -38 21 -14 0 -13 -2 3 -9z"/>
<path d="M10886 2098 c-9 -12 -16 -29 -15 -38 0 -8 5 -3 10 11 5 15 20 31 32
37 17 8 18 11 5 11 -9 1 -24 -9 -32 -21z"/>
<path d="M7218 2103 c144 -2 380 -2 525 0 144 1 26 2 -263 2 -289 0 -407 -1
-262 -2z"/>
<path d="M8018 2103 c7 -3 16 -2 19 1 4 3 -2 6 -13 5 -11 0 -14 -3 -6 -6z"/>
<path d="M8068 2103 c6 -2 18 -2 25 0 6 3 1 5 -13 5 -14 0 -19 -2 -12 -5z"/>
<path d="M8155 2103 c44 -11 45 -15 47 -257 l3 -231 2 229 c3 203 1 231 -13
248 -10 10 -27 17 -38 17 -20 -1 -20 -2 -1 -6z"/>
<path d="M8324 2102 c-16 -10 -34 -48 -33 -69 0 -10 5 -2 12 17 7 19 23 40 37
47 14 7 18 13 10 13 -8 0 -20 -4 -26 -8z"/>
<path d="M8538 2103 c34 -2 90 -2 125 0 34 2 6 3 -63 3 -69 0 -97 -1 -62 -3z"/>
<path d="M8815 2098 c11 -6 23 -16 27 -22 5 -8 8 -7 8 1 0 7 -9 17 -19 23 -27
14 -41 12 -16 -2z"/>
<path d="M8958 2093 c-13 -15 -17 -58 -20 -249 -3 -217 -2 -233 16 -253 18
-20 28 -21 261 -21 219 0 244 2 256 18 11 14 11 15 -1 5 -10 -10 -76 -13 -256
-13 -213 0 -243 2 -255 17 -11 13 -13 61 -11 237 2 122 6 229 9 239 2 10 14
22 26 27 15 6 17 9 6 9 -9 1 -23 -7 -31 -16z"/>
<path d="M9472 2094 c15 -17 18 -49 21 -240 l2 -219 3 221 c2 218 2 221 -20
240 -23 19 -23 19 -6 -2z"/>
<path d="M9602 2097 c-6 -6 -13 -26 -16 -42 l-6 -30 12 30 c6 17 18 35 27 42
9 7 11 13 5 13 -6 0 -16 -6 -22 -13z"/>
<path d="M10124 2085 c13 -25 15 -66 11 -250 l-4 -220 10 165 c13 214 9 294
-14 317 -17 17 -17 17 -3 -12z"/>
<path d="M16233 2050 c0 -30 2 -43 4 -27 2 15 2 39 0 55 -2 15 -4 2 -4 -28z"/>
<path d="M8851 1870 c-2 -107 -4 -199 -6 -205 -1 -5 -3 -20 -3 -32 -4 -50 -18
-53 -240 -53 -151 -1 -202 -3 -189 -11 12 -7 86 -10 207 -7 252 4 234 -14 238
236 2 103 2 205 0 227 -3 22 -6 -48 -7 -155z"/>
<path d="M12054 1810 c-5 -104 -6 -186 -2 -182 9 9 24 372 16 372 -3 0 -9 -85
-14 -190z"/>
<path d="M12950 1990 c0 -5 5 -10 10 -10 6 0 10 5 10 10 0 6 -4 10 -10 10 -5
0 -10 -4 -10 -10z"/>
<path d="M13590 1980 c0 -5 5 -10 10 -10 6 0 10 5 10 10 0 6 -4 10 -10 10 -5
0 -10 -4 -10 -10z"/>
<path d="M14217 1983 c18 -2 50 -2 70 0 21 2 7 4 -32 4 -38 0 -55 -2 -38 -4z"/>
<path d="M11004 1967 c-3 -8 -4 -34 -2 -58 3 -38 6 -44 28 -47 35 -4 65 20 55
44 -4 10 -8 30 -9 44 -1 21 -7 26 -34 28 -21 2 -34 -2 -38 -11z m64 -19 c3
-13 -3 -18 -22 -18 -20 0 -26 5 -26 21 0 15 5 20 22 17 13 -2 24 -11 26 -20z
m7 -38 c9 -15 -14 -40 -36 -40 -22 0 -33 16 -25 35 6 17 52 20 61 5z"/>
<path d="M11718 1933 l-3 -47 -28 42 c-15 23 -32 42 -37 42 -6 0 -9 -25 -8
-57 1 -50 2 -52 5 -15 5 49 17 53 37 14 8 -16 22 -34 30 -41 14 -12 16 -7 16
48 0 72 -8 81 -12 14z"/>
<path d="M12292 1923 l1 -58 6 45 6 45 13 -42 c11 -38 32 -59 32 -33 0 6 -4
10 -9 10 -5 0 -14 20 -20 45 -16 63 -31 56 -29 -12z"/>
<path d="M12364 1945 c-18 -43 -17 -60 1 -20 l14 30 1 -44 c0 -57 6 -50 13 17
7 61 -7 69 -29 17z"/>
<path d="M9096 1944 c16 -31 16 -33 -5 -65 l-23 -34 27 29 c22 24 29 27 36 15
21 -35 28 -43 34 -38 3 3 -4 17 -15 32 -24 30 -25 41 -5 57 8 7 15 18 15 24 0
6 -9 0 -19 -14 l-19 -24 -22 24 -21 25 17 -31z"/>
<path d="M9736 1955 c-34 -34 -11 -105 34 -105 21 0 54 29 45 39 -4 3 -11 -2
-16 -12 -22 -39 -73 -10 -67 39 4 37 31 53 59 36 18 -11 20 -11 17 0 -7 19
-53 21 -72 3z"/>
<path d="M10365 1950 c16 -51 36 -90 45 -90 6 0 10 5 10 11 0 5 -4 8 -9 5 -5
-3 -14 15 -21 39 -7 25 -17 48 -22 52 -6 3 -7 -3 -3 -17z"/>
<path d="M10435 1933 c-8 -20 -13 -38 -10 -41 3 -3 5 -3 5 0 0 3 7 22 15 42 8
20 13 36 10 36 -2 0 -12 -16 -20 -37z"/>
<path d="M8446 1933 c9 -15 21 -41 25 -58 l7 -30 1 31 c1 17 10 39 21 49 11
10 20 23 20 29 0 6 -10 -2 -23 -17 l-23 -29 -13 26 c-8 14 -19 26 -24 26 -5 0
-1 -12 9 -27z"/>
<path d="M10224 1785 c0 -93 2 -133 3 -88 2 45 2 122 0 170 -1 48 -3 12 -3
-82z"/>
<path d="M5100 1930 c8 -5 20 -10 25 -10 6 0 3 5 -5 10 -8 5 -19 10 -25 10 -5
0 -3 -5 5 -10z"/>
<path d="M12954 1916 c0 -13 4 -22 9 -19 10 6 9 43 -2 43 -5 0 -8 -11 -7 -24z"/>
<path d="M13422 1920 c0 -14 2 -19 5 -12 2 6 2 18 0 25 -3 6 -5 1 -5 -13z"/>
<path d="M15652 1918 c-13 -13 2 -38 24 -38 20 0 28 -21 13 -32 -12 -8 -11 -9
1 -5 24 6 17 31 -13 45 -30 14 -27 37 4 29 11 -3 17 -1 13 4 -7 13 -28 11 -42
-3z"/>
<path d="M15730 1885 c0 -27 2 -46 5 -43 8 8 9 77 2 85 -4 3 -7 -15 -7 -42z"/>
<path d="M15837 1923 c-4 -3 -7 -25 -6 -47 l1 -41 8 35 c5 19 6 38 4 41 -2 4
2 10 8 12 7 3 8 6 2 6 -6 1 -14 -2 -17 -6z"/>
<path d="M8294 1775 c0 -82 2 -115 3 -72 2 43 2 110 0 150 -1 40 -3 5 -3 -78z"/>
<path d="M13580 1910 c0 -5 5 -10 10 -10 6 0 10 5 10 10 0 6 -4 10 -10 10 -5
0 -10 -4 -10 -10z"/>
<path d="M15876 1911 c-4 -7 -5 -15 -2 -18 9 -9 19 4 14 18 -4 11 -6 11 -12 0z"/>
<path d="M15768 1870 c2 -16 6 -30 8 -30 2 0 4 14 4 30 0 17 -4 30 -8 30 -5 0
-7 -13 -4 -30z"/>
<path d="M15802 1870 c0 -19 2 -27 5 -17 2 9 2 25 0 35 -3 9 -5 1 -5 -18z"/>
<path d="M7192 1863 c-5 -10 -5 -31 -1 -48 6 -28 7 -28 9 -5 1 14 3 35 4 48 3
27 0 28 -12 5z"/>
<path d="M7083 1830 c0 -25 2 -35 4 -22 2 12 2 32 0 45 -2 12 -4 2 -4 -23z"/>
<path d="M7230 1850 c0 -5 5 -10 11 -10 5 0 7 5 4 10 -3 6 -8 10 -11 10 -2 0
-4 -4 -4 -10z"/>
<path d="M15647 1849 c7 -7 15 -10 18 -7 3 3 -2 9 -12 12 -14 6 -15 5 -6 -5z"/>
<path d="M6997 1839 c7 -7 15 -10 18 -7 3 3 -2 9 -12 12 -14 6 -15 5 -6 -5z"/>
<path d="M7106 1843 c7 -4 14 -19 17 -33 4 -22 5 -21 4 4 -1 17 -9 31 -17 33
-10 3 -11 2 -4 -4z"/>
<path d="M7036 1823 c6 -4 14 -15 17 -23 5 -11 6 -9 4 4 -1 11 -9 21 -17 23
-10 3 -11 2 -4 -4z"/>
<path d="M7018 1783 c7 -3 16 -2 19 1 4 3 -2 6 -13 5 -11 0 -14 -3 -6 -6z"/>
<path d="M9947 1772 c-26 -29 -22 -78 8 -98 24 -16 27 -16 45 1 21 19 29 82
10 70 -6 -4 -8 -16 -5 -26 7 -20 -9 -49 -26 -49 -5 0 -9 7 -9 15 0 9 -6 12
-15 9 -17 -7 -21 11 -4 22 8 4 8 9 0 17 -16 16 -13 30 4 23 9 -3 15 0 15 10 0
11 6 13 21 9 15 -5 19 -4 15 4 -11 17 -41 13 -59 -7z"/>
<path d="M12502 1750 c0 -25 2 -39 5 -32 2 6 13 12 24 12 15 0 19 7 18 33 -2
30 -2 30 -6 5 -2 -16 -10 -28 -18 -28 -8 0 -16 12 -18 28 -2 16 -4 10 -5 -18z"/>
<path d="M10613 1730 c0 -30 2 -43 4 -27 2 15 2 39 0 55 -2 15 -4 2 -4 -28z"/>
<path d="M12954 1746 c0 -13 4 -22 9 -19 10 6 9 43 -2 43 -5 0 -8 -11 -7 -24z"/>
<path d="M11503 1700 c0 -36 2 -50 4 -32 2 17 2 47 0 65 -2 17 -4 3 -4 -33z"/>
<path d="M13585 1740 c3 -5 8 -10 11 -10 2 0 4 5 4 10 0 6 -5 10 -11 10 -5 0
-7 -4 -4 -10z"/>
<path d="M10773 1680 c0 -36 2 -50 4 -32 2 17 2 47 0 65 -2 17 -4 3 -4 -33z"/>
<path d="M14193 1733 c15 -2 39 -2 55 0 15 2 2 4 -28 4 -30 0 -43 -2 -27 -4z"/>
<path d="M9337 1705 c3 -8 9 -12 14 -9 12 7 11 11 -5 17 -10 4 -13 1 -9 -8z"/>
<path d="M8651 1701 c-8 -5 -9 -11 -3 -15 5 -3 12 1 16 9 6 17 6 18 -13 6z"/>
<path d="M16221 1694 c0 -11 3 -14 6 -6 3 7 2 16 -1 19 -3 4 -6 -2 -5 -13z"/>
<path d="M11410 1642 c0 -12 -11 -29 -24 -37 -21 -14 -59 -16 -259 -13 -129 2
-233 0 -230 -4 7 -13 459 -9 488 4 24 11 44 52 31 65 -3 4 -6 -3 -6 -15z"/>
<path d="M16222 1625 c0 -16 2 -22 5 -12 2 9 2 23 0 30 -3 6 -5 -1 -5 -18z"/>
<path d="M8179 1595 c-12 -13 -102 -15 -657 -15 -354 0 -648 2 -655 6 -8 5 -7
2 1 -7 11 -12 118 -14 652 -14 l639 0 23 23 c12 12 20 22 17 22 -2 0 -11 -7
-20 -15z"/>
<path d="M10112 1598 c-9 -9 -80 -15 -250 -18 l-237 -6 231 -2 c217 -2 233 -1
255 18 13 10 22 19 19 20 -4 0 -12 -6 -18 -12z"/>
<path d="M9597 1589 c7 -7 15 -10 18 -7 3 3 -2 9 -12 12 -14 6 -15 5 -6 -5z"/>
<path d="M11554 1588 c15 -10 403 -8 441 2 17 5 -74 8 -211 7 -133 -1 -237 -5
-230 -9z"/>
<path d="M10273 1578 c15 -10 276 -8 387 2 62 6 20 7 -157 7 -133 -1 -236 -5
-230 -9z"/>
<path d="M8370 1570 c0 -5 5 -10 10 -10 6 0 10 5 10 10 0 6 -4 10 -10 10 -5 0
-10 -4 -10 -10z"/>
<path d="M16222 1545 c0 -16 2 -22 5 -12 2 9 2 23 0 30 -3 6 -5 -1 -5 -18z"/>
<path d="M14837 1528 c-31 -11 -40 -37 -34 -94 3 -35 4 -34 5 12 1 34 8 56 19
65 24 21 504 27 521 6 8 -9 13 -86 15 -238 l2 -224 3 232 c2 221 1 233 -17
243 -25 13 -476 12 -514 -2z"/>
<path d="M13647 1521 c-89 -5 -120 -10 -127 -21 -16 -24 -11 -36 5 -14 13 20
27 22 245 29 204 6 234 5 255 -9 l25 -16 2 -228 3 -227 3 215 c1 118 0 224 -2
236 -11 44 -80 50 -409 35z"/>
<path d="M12973 1513 c75 -2 199 -2 275 0 75 1 13 3 -138 3 -151 0 -213 -2
-137 -3z"/>
<path d="M10490 1499 c-322 -3 17 -3 752 -1 1063 4 1341 2 1353 -8 22 -18 22
-517 0 -559 l-14 -29 -423 -6 c-562 -8 -2530 -22 -2544 -18 -6 2 -16 13 -21
25 -14 30 -4 537 10 556 6 7 20 17 32 21 17 7 17 9 3 9 -10 1 -27 -8 -38 -19
-19 -19 -20 -35 -22 -227 -5 -367 -6 -342 22 -365 28 -23 -195 -23 2260 -2
457 3 694 9 713 16 16 6 33 22 38 35 5 13 9 143 9 287 0 243 -1 264 -18 280
-17 15 -80 16 -773 14 -415 -2 -1017 -6 -1339 -9z"/>
<path d="M12726 1494 c-25 -24 -27 -47 -24 -244 l3 -185 3 196 c2 182 4 198
23 223 23 29 19 35 -5 10z"/>
<path d="M13403 1481 c6 -17 14 -31 18 -31 11 0 -2 38 -16 50 -11 10 -12 6 -2
-19z"/>
<path d="M6923 1483 c15 -2 39 -2 55 0 15 2 2 4 -28 4 -30 0 -43 -2 -27 -4z"/>
<path d="M7113 1483 c42 -2 112 -2 155 0 42 1 7 3 -78 3 -85 0 -120 -2 -77 -3z"/>
<path d="M7553 1483 c9 -2 23 -2 30 0 6 3 -1 5 -18 5 -16 0 -22 -2 -12 -5z"/>
<path d="M7794 1483 c206 -4 220 -6 236 -48 7 -16 9 -17 9 -3 1 10 -9 26 -21
38 -21 19 -33 20 -222 18 l-201 -3 199 -2z"/>
<path d="M8303 1483 c65 -2 168 -2 230 0 62 1 9 3 -118 3 -126 0 -177 -2 -112
-3z"/>
<path d="M8958 1483 c78 -2 206 -2 285 0 78 1 14 3 -143 3 -157 0 -221 -2
-142 -3z"/>
<path d="M6855 1460 c-10 -11 -16 -22 -14 -24 2 -2 12 7 22 20 22 29 17 32 -8
4z"/>
<path d="M7368 1460 c12 -12 22 -26 22 -32 0 -6 3 -8 6 -5 9 9 -24 57 -38 57
-7 0 -2 -9 10 -20z"/>
<path d="M7497 1462 c-10 -10 -17 -29 -16 -43 1 -22 2 -21 10 6 5 16 16 36 26
42 9 7 12 13 6 13 -5 0 -17 -8 -26 -18z"/>
<path d="M8140 1465 c-20 -24 -6 -28 15 -5 10 11 13 20 8 20 -6 0 -16 -7 -23
-15z"/>
<path d="M8660 1466 c12 -15 16 -70 20 -275 l6 -256 2 256 c2 254 2 256 -20
275 -22 19 -22 19 -8 0z"/>
<path d="M8786 1461 c-10 -11 -16 -25 -15 -30 2 -6 12 3 21 19 20 35 18 38 -6
11z"/>
<path d="M9480 1462 c7 -15 10 -109 8 -286 -3 -243 -5 -266 -22 -285 -19 -20
-28 -21 -330 -23 l-311 -3 300 -3 c165 -1 310 0 323 3 46 11 52 52 52 328 0
214 -2 256 -16 273 -14 18 -15 18 -4 -4z"/>
<path d="M15077 1375 c-9 -20 -17 -38 -17 -40 0 -3 18 -5 40 -5 22 0 40 2 40
5 0 11 -34 75 -40 75 -3 0 -14 -16 -23 -35z"/>
<path d="M4220 1385 c-8 -9 -8 -15 -2 -15 12 0 26 19 19 26 -2 2 -10 -2 -17
-11z"/>
<path d="M7394 1235 c0 -88 2 -123 3 -77 2 46 2 118 0 160 -1 42 -3 5 -3 -83z"/>
<path d="M13410 1174 c0 -130 -4 -224 -11 -237 -10 -21 -10 -21 5 -3 13 17 16
56 16 238 0 120 -2 218 -5 218 -3 0 -5 -97 -5 -216z"/>
<path d="M7482 1139 c-2 -232 -1 -247 17 -263 11 -10 26 -16 33 -13 9 4 7 6
-4 6 -9 1 -20 7 -25 14 -4 6 -10 122 -13 257 l-6 245 -2 -246z"/>
<path d="M6834 1130 c0 -118 2 -167 3 -107 2 59 2 155 0 215 -1 59 -3 10 -3
-108z"/>
<path d="M8033 1255 c0 -33 2 -45 4 -27 2 18 2 45 0 60 -2 15 -4 0 -4 -33z"/>
<path d="M14793 1255 c0 -27 2 -38 4 -22 2 15 2 37 0 50 -2 12 -4 0 -4 -28z"/>
<path d="M15472 1224 c-12 -8 -22 -20 -22 -26 0 -7 6 -3 14 8 13 17 31 20 158
25 l143 5 -135 2 c-109 2 -140 -1 -158 -14z"/>
<path d="M15793 1233 c9 -2 25 -2 35 0 9 3 1 5 -18 5 -19 0 -27 -2 -17 -5z"/>
<path d="M14548 1223 c23 -2 59 -2 80 0 20 2 1 4 -43 4 -44 0 -61 -2 -37 -4z"/>
<path d="M15038 1223 c56 -2 148 -2 205 0 56 1 10 3 -103 3 -113 0 -159 -2
-102 -3z"/>
<path d="M15997 1220 c4 -8 11 -62 14 -120 l5 -105 2 101 c2 78 -1 104 -14
120 -8 10 -12 12 -7 4z"/>
<path d="M8124 1065 c0 -88 2 -123 3 -77 2 46 2 118 0 160 -1 42 -3 5 -3 -83z"/>
<path d="M14682 1203 c9 -10 18 -25 21 -33 4 -11 6 -9 6 6 1 21 -16 44 -33 44
-5 0 -2 -8 6 -17z"/>
<path d="M14150 1195 c-6 -8 -10 -19 -8 -24 1 -6 8 1 15 14 13 28 11 31 -7 10z"/>
<path d="M14793 1135 c0 -38 2 -53 4 -32 2 20 2 52 0 70 -2 17 -4 1 -4 -38z"/>
<path d="M2480 1110 c0 -5 5 -10 11 -10 5 0 7 5 4 10 -3 6 -8 10 -11 10 -2 0
-4 -4 -4 -10z"/>
<path d="M13687 1113 c-15 -14 -6 -34 19 -43 18 -7 24 -15 20 -26 -3 -8 -2
-12 4 -9 19 12 10 35 -15 41 -29 7 -33 30 -7 37 14 4 14 5 1 6 -9 0 -19 -2
-22 -6z"/>
<path d="M12917 1096 c-4 -10 -1 -13 9 -9 7 3 14 9 14 14 0 14 -17 10 -23 -5z"/>
<path d="M12983 1065 c0 -27 2 -38 4 -22 2 15 2 37 0 50 -2 12 -4 0 -4 -28z"/>
<path d="M13092 1098 c-29 -29 -2 -79 40 -77 7 0 3 4 -10 9 -29 12 -38 37 -23
61 13 22 10 24 -7 7z"/>
<path d="M13760 1072 c0 -23 3 -42 8 -42 9 0 7 68 -2 77 -3 4 -6 -12 -6 -35z"/>
<path d="M15700 1070 c0 -22 2 -40 5 -40 3 0 25 10 48 22 l42 21 -40 18 c-55
24 -55 24 -55 -21z"/>
<path d="M13010 1067 c0 -20 3 -38 8 -40 9 -6 8 61 -2 70 -3 3 -6 -10 -6 -30z"/>
<path d="M14436 1079 l-38 -21 31 -19 c48 -29 53 -28 58 19 2 23 0 42 -4 42
-4 -1 -25 -10 -47 -21z"/>
<path d="M14702 1029 c-3 -112 -5 -113 -195 -111 -83 1 -192 -2 -242 -7 -75
-7 -51 -8 143 -10 304 -1 307 0 299 139 l-3 65 -2 -76z"/>
<path d="M2523 1066 c12 -25 47 -53 47 -37 0 5 -7 16 -15 25 -8 8 -15 19 -15
25 0 6 -6 11 -14 11 -11 0 -12 -5 -3 -24z"/>
<path d="M13193 1083 c-7 -2 -12 -19 -12 -36 2 -28 2 -29 6 -7 3 14 10 31 15
38 11 13 10 13 -9 5z"/>
<path d="M13800 1079 c0 -5 5 -7 10 -4 6 3 10 8 10 11 0 2 -4 4 -10 4 -5 0
-10 -5 -10 -11z"/>
<path d="M13836 1075 c-9 -25 4 -45 30 -45 20 0 24 5 24 30 0 17 -4 30 -9 30
-4 0 -6 -12 -3 -26 4 -21 1 -25 -14 -22 -13 3 -18 11 -17 26 3 25 -2 29 -11 7z"/>
<path d="M15071 1048 c12 -24 22 -44 23 -45 1 -2 12 18 24 42 l22 45 -45 0
-45 0 21 -42z"/>
<path d="M8320 1070 c0 -5 5 -10 10 -10 6 0 10 5 10 10 0 6 -4 10 -10 10 -5 0
-10 -4 -10 -10z"/>
<path d="M9123 1040 c0 -25 2 -35 4 -22 2 12 2 32 0 45 -2 12 -4 2 -4 -23z"/>
<path d="M12941 1071 c-1 -8 -8 -11 -20 -8 -19 5 -38 -19 -26 -31 3 -3 5 0 5
6 0 7 11 12 25 12 14 0 25 -5 25 -12 0 -6 2 -9 5 -6 3 3 1 16 -4 29 -5 13 -10
18 -10 10z"/>
<path d="M6971 1057 c-1 -12 10 -22 30 -29 22 -7 29 -15 24 -27 -5 -13 -4 -14
7 -3 11 11 10 16 -6 28 -11 8 -25 14 -32 14 -7 0 -15 8 -17 18 -4 16 -5 16 -6
-1z"/>
<path d="M7058 1058 c-2 -7 -1 -26 3 -43 6 -28 7 -26 8 13 1 42 -3 53 -11 30z"/>
<path d="M8371 1054 c0 -11 3 -14 6 -6 3 7 2 16 -1 19 -3 4 -6 -2 -5 -13z"/>
<path d="M9150 1060 c0 -5 5 -10 10 -10 6 0 10 5 10 10 0 6 -4 10 -10 10 -5 0
-10 -4 -10 -10z"/>
<path d="M13136 1062 c6 -4 14 -14 17 -22 4 -10 6 -8 6 8 1 15 -5 22 -16 22
-11 0 -14 -3 -7 -8z"/>
<path d="M8281 1044 c0 -11 3 -14 6 -6 3 7 2 16 -1 19 -3 4 -6 -2 -5 -13z"/>
<path d="M8460 1056 c0 -2 8 -10 18 -17 15 -13 16 -12 3 4 -13 16 -21 21 -21
13z"/>
<path d="M9046 1044 c-8 -20 -8 -24 2 -24 4 0 8 9 9 20 2 24 -3 26 -11 4z"/>
<path d="M9080 1041 c0 -10 7 -24 15 -31 13 -11 13 -8 4 19 -12 35 -19 40 -19
12z"/>
<path d="M7091 1018 c2 -28 2 -29 6 -8 3 14 10 28 17 32 7 5 5 8 -6 8 -14 0
-18 -8 -17 -32z"/>
<path d="M7137 1043 c-10 -9 -8 -41 2 -47 5 -4 7 3 4 15 -4 12 0 25 8 30 8 5
9 9 3 9 -6 0 -14 -3 -17 -7z"/>
<path d="M7175 1006 c0 -24 3 -42 8 -39 4 2 7 22 7 44 0 21 -3 39 -7 39 -5 0
-8 -20 -8 -44z"/>
<path d="M7661 1034 c0 -11 3 -14 6 -6 3 7 2 16 -1 19 -3 4 -6 -2 -5 -13z"/>
<path d="M7751 1034 c0 -11 3 -14 6 -6 3 7 2 16 -1 19 -3 4 -6 -2 -5 -13z"/>
<path d="M8311 1038 c-1 -9 -6 -18 -12 -20 -7 -2 -10 -11 -7 -18 3 -11 8 -9
17 8 7 13 10 28 7 35 -2 7 -5 5 -5 -5z"/>
<path d="M8346 1025 c2 -11 4 -24 4 -30 0 -5 5 -3 10 5 12 19 13 33 1 25 -5
-3 -11 0 -14 7 -2 7 -3 4 -1 -7z"/>
<path d="M8402 1020 c0 -19 2 -27 5 -17 2 9 2 25 0 35 -3 9 -5 1 -5 -18z"/>
<path d="M8430 1025 c0 -14 2 -25 4 -25 2 0 6 11 8 25 3 14 1 25 -3 25 -5 0
-9 -11 -9 -25z"/>
<path d="M13680 1040 c0 -5 5 -10 11 -10 5 0 7 5 4 10 -3 6 -8 10 -11 10 -2 0
-4 -4 -4 -10z"/>
<path d="M9150 1026 c0 -8 4 -17 9 -20 5 -4 7 3 4 14 -6 23 -13 26 -13 6z"/>
<path d="M2580 1008 c0 -7 16 -29 35 -48 19 -19 35 -38 35 -42 0 -12 62 -79
68 -73 7 6 -29 60 -70 106 -10 10 -18 22 -18 27 0 4 -12 15 -25 25 -18 13 -25
14 -25 5z"/>
<path d="M13860 1010 c-9 -6 -10 -10 -3 -10 6 0 15 5 18 10 8 12 4 12 -15 0z"/>
<path d="M6970 1000 c0 -5 5 -10 11 -10 5 0 7 5 4 10 -3 6 -8 10 -11 10 -2 0
-4 -4 -4 -10z"/>
<path d="M14041 975 c-1 -11 -8 -31 -17 -43 -15 -21 -21 -22 -212 -23 -108 -1
-210 -5 -227 -10 -18 -5 62 -7 192 -4 131 2 231 9 243 15 21 11 36 50 27 72
-3 7 -6 4 -6 -7z"/>
<path d="M15997 971 c-4 -17 -3 -21 5 -13 5 5 8 16 6 23 -3 8 -7 3 -11 -10z"/>
<path d="M15351 969 c-2 -36 -26 -41 -278 -49 l-248 -7 247 1 c239 1 248 2
269 22 12 12 19 28 16 35 -4 10 -6 10 -6 -2z"/>
<path d="M15440 968 c0 -9 5 -20 10 -23 13 -8 13 5 0 25 -8 13 -10 13 -10 -2z"/>
<path d="M12690 949 c0 -26 23 -49 58 -57 21 -6 158 -7 327 -3 l290 7 -317 2
-317 2 -16 30 c-16 31 -25 38 -25 19z"/>
<path d="M14130 946 c0 -8 5 -18 10 -21 6 -3 10 1 10 9 0 8 -4 18 -10 21 -5 3
-10 -1 -10 -9z"/>
<path d="M15700 930 l-215 -6 235 -2 c129 -1 241 2 248 6 8 5 0 8 -20 8 -18
-1 -130 -3 -248 -6z"/>
<path d="M8673 918 c-5 -7 -13 -21 -16 -30 -6 -16 -25 -18 -216 -18 -129 0
-212 -4 -216 -10 -8 -14 358 -13 408 1 26 7 41 18 48 36 11 29 7 40 -8 21z"/>
<path d="M7380 906 c-6 -9 -10 -21 -8 -28 3 -8 9 -4 17 10 15 28 9 39 -9 18z"/>
<path d="M8769 902 c16 -30 33 -38 22 -11 -4 13 -14 25 -20 27 -10 3 -10 0 -2
-16z"/>
<path d="M7030 860 c-128 -6 -124 -6 80 -8 142 -1 210 2 200 8 -15 10 -50 10
-280 0z"/>
<path d="M7570 860 c-10 -6 55 -10 193 -10 136 0 206 3 202 10 -8 13 -375 13
-395 0z"/>
<path d="M18295 803 c-141 -73 -297 -104 -575 -113 l-205 -6 163 -2 c179 -2
325 10 417 35 33 9 75 17 93 17 18 0 27 3 21 7 -7 4 5 12 27 19 36 12 114 57
114 66 0 6 0 6 -55 -23z"/>
<path d="M16080 746 c-26 -10 -175 -15 -585 -20 -302 -4 -593 -9 -645 -11 -52
-2 -594 -9 -1205 -16 -610 -6 -1391 -15 -1735 -19 -592 -8 -578 -8 250 -4
1870 10 3779 29 3865 40 28 3 62 14 75 25 29 22 27 22 -20 5z"/>
<path d="M10178 663 c56 -2 148 -2 205 0 56 1 10 3 -103 3 -113 0 -159 -2
-102 -3z"/>
<path d="M10538 663 c7 -3 16 -2 19 1 4 3 -2 6 -13 5 -11 0 -14 -3 -6 -6z"/>
<path d="M10638 663 c18 -2 45 -2 60 0 15 2 0 4 -33 4 -33 0 -45 -2 -27 -4z"/>
<path d="M11018 663 c34 -2 90 -2 125 0 34 2 6 3 -63 3 -69 0 -97 -1 -62 -3z"/>
<path d="M2475 599 c-4 -6 -5 -12 -2 -15 2 -3 7 2 10 11 7 17 1 20 -8 4z"/>
</g>
</svg>
